<?xml version="1.0" encoding="utf-8"?>
<!-- Generator: Adobe Illustrator 19.0.0, SVG Export Plug-In . SVG Version: 6.00 Build 0)  -->
<svg version="1.1" id="Layer_1" xmlns="http://www.w3.org/2000/svg" xmlns:xlink="http://www.w3.org/1999/xlink" x="0px" y="0px"
	 viewBox="-794 -429 2130 1420" style="enable-background:new -794 -429 2130 1420;" xml:space="preserve">
<style type="text/css">
	.st0{fill:#FFFFFF;}
	.st1{fill:#CDCEE7;}
	.st2{fill:#EBEFF6;}
	.st3{fill:#FF85C0;}
	.st4{opacity:0.5;fill:#32436B;enable-background:new    ;}
	.st5{fill:#6E80AE;}
	.st6{opacity:0.5;}
	.st7{fill:#6E80B4;}
	.st8{fill:#F2F5FC;}
	.st9{opacity:0.4;fill:#6E80B4;enable-background:new    ;}
	.st10{opacity:0.5;fill:#6E80B4;enable-background:new    ;}
	.st11{fill:none;stroke:#F2F5FC;stroke-miterlimit:10;}
	.st12{fill:none;stroke:#32436B;stroke-miterlimit:10;}
	.st13{fill:#32436B;}
	.st14{fill:none;stroke:#6E80AE;stroke-width:0.5;stroke-miterlimit:10;}
	.st15{fill:#32264F;}
	.st16{opacity:0.2;fill:#32264F;enable-background:new    ;}
	.st17{opacity:0.2;}
	.st18{fill:#85A5FF;}
	.st19{fill:#DAECFD;}
	.st20{fill:#FD966E;}
	.st21{opacity:0.4;fill:#E8755D;enable-background:new    ;}
	.st22{fill:none;stroke:#32264F;stroke-width:0.25;stroke-miterlimit:10;}
	.st23{fill:#ABC9FF;}
	.st24{fill:none;stroke:#32264F;stroke-width:0.5;stroke-miterlimit:10;}
	.st25{fill:none;stroke:#65508C;stroke-miterlimit:10;}
	.st26{fill:#DEF1FA;}
	.st27{opacity:0.4;fill:#FD966E;enable-background:new    ;}
	.st28{opacity:0.2;fill:#32436B;enable-background:new    ;}
	.st29{opacity:0.6;fill:#CDCEE7;enable-background:new    ;}
	.st30{opacity:0.4;fill:#CDCEE7;enable-background:new    ;}
	.st31{opacity:0.4;fill:#85A5FF;enable-background:new    ;}
	.st32{fill:none;stroke:#32264F;stroke-miterlimit:10;}
	.st33{fill:#7A8EC1;}
	.st34{fill:#E261A5;}
	.st35{fill:none;stroke:#85A5FF;stroke-width:0.25;stroke-miterlimit:10;}
	.st36{clip-path:url(#SVGID_2_);}
	.st37{opacity:0.3;fill:#88A6DB;enable-background:new    ;}
	.st38{opacity:0.4;fill:#FF85C0;enable-background:new    ;}
	.st39{fill:none;stroke:#FFFFFF;stroke-width:0.25;stroke-miterlimit:10;}
	.st40{opacity:0.5;fill:#88A6DB;enable-background:new    ;}
	.st41{fill:#43692A;}
</style>
<g>
	<g id="BACKGROUND">
		<rect x="-761.4" y="-407.9" class="st0" width="2066.6" height="1377.7"/>
		<g>
			<path class="st1" d="M-265.1-280.4c-63.1-1.1-153.2-1.5-206.3,47.7c-28.7,26.6-31,57.2-41.8,95.1c-12.4,43.5-45.7,57.7-74.2,82.3
				c-34.1,29.4-76.5,66-93.4,115c-21,60.9-8.9,127.8,42.9,151.7c77.7,35.8,170.6,36.1,252.3,39.9c45.5,2.1,89.5,2.8,134.6,13.2
				c51.9,11.9,102.6,30.3,154.9,39.3c90.9,15.6,187.4,21.5,276.1-12.6c47.8-18.4,93.7-44,139.4-68.8c27.7-15,56-28.6,76.2-58.3
				C479.9,40.4,310-53.4,237.8-86.4c-57.1-26.1-118.1-37.6-172.2-73.8C22.7-188.8-13.9-212.8-60-232.6
				C-118.5-257.7-187.9-279-265.1-280.4z"/>
			<g>
				<g>
					<rect x="-610.6" y="13" class="st2" width="96.6" height="96.6"/>
					<rect x="-601.9" y="21.7" class="st3" width="79.3" height="79.3"/>
					<polygon class="st4" points="-601.9,21.7 -522.7,100.9 -601.9,100.9 					"/>
				</g>
				<g>
					<rect x="-491.9" y="13" class="st2" width="96.6" height="96.6"/>
					<rect x="-483.2" y="21.7" class="st5" width="79.3" height="79.3"/>
					<polygon class="st4" points="-483.2,21.7 -404,100.9 -483.2,100.9 					"/>
				</g>
				<g>
					<rect x="-373.2" y="13" class="st2" width="96.6" height="96.6"/>
					<rect x="-364.5" y="21.7" class="st5" width="79.3" height="79.3"/>
					<polygon class="st4" points="-364.5,21.7 -285.3,100.9 -364.5,100.9 					"/>
				</g>
			</g>
		</g>
		<g class="st6">
			<path class="st7" d="M-188.9,666.6c-108,12.5-154.1-67.1-325.1,21.7c-38.5,20-45.5,70.9,15.8,95.6
				c29.5,11.8,162.7,65.4,254.9,25.6c111.6-48.2,253.4-31.7,374.5-31.7c86.2,0,178.7-5.2,262.9,5c24,2.9,45.6,9.5,69.6,12
				c49.3,5.3,101.6,4.6,151.8,6.1c110.4,3.2,218.8,5.8,328.8,0.4c37-1.8,160.2-3.8,178-30c8.7-12.8-22.1-21.9-22.8-35.1
				c-0.8-13.8,27-19.4,26-32.8c-1.9-25.7-91.7-28.2-120.5-30.2c-186.1-12.9-367.9-5.5-554.7-0.7c-151.1,3.9-305.4,3.8-455.5,12.7
				c-47.9,2.9-96.3,2.9-144.4,4.2c-27.6,0.8-64.8,3.1-90.4-3.1c5.4-6.5,9.7-15.2,4.9-21.2"/>
		</g>
		<g>
			<path class="st1" d="M1135.5,316.2c22.6-15.5,35.6-43.4,44-66.4c14.3-39.3,12.6-80.3,3.1-120.5c-6.7-28.4-20.3-54.2-44-71.9
				c-8.6-6.4-17.8-11.8-27.3-16.5c-9.6-3.7-106.2-62.8-142-74.4C927.5-47.2,880.9-58.3,839-68.5c-7.3-1.8-18-4.2-25.8-2l1.7-0.8
				c-48-2.1-116.4-6.1-158,23.8c-22.5,16.2-25.2,35.8-34.4,59.8c-10.6,27.6-36.4,35.6-58.7,50.5c-26.7,17.8-60,39.9-74.2,70.9
				c-17.7,38.5-10.4,82,28.3,99.1c58,25.7,128.6,29,190.5,34.2c34.5,2.9,67.9,4.8,101.8,13c39.1,9.4,77.1,22.9,116.5,30.5
				C995.3,323.6,1077,356.3,1135.5,316.2z"/>
			<g>
				<rect x="930.9" y="72.8" class="st0" width="179.5" height="179.5"/>
				<rect x="947" y="88.9" class="st7" width="147.4" height="147.4"/>
				<polygon class="st4" points="947,88.9 1094.4,236.2 947,236.2 				"/>
			</g>
		</g>
	</g>
	<g id="OBJECTS">
		<g>
			<g>
				<g>
					<g>
						<g>
							<g>
								<rect x="-153.7" y="-215" class="st8" width="915.2" height="591.9"/>
								<g>
									<g class="st6">
										<rect x="-131.1" y="-215" class="st9" width="11.5" height="554"/>
										<rect x="-85.5" y="-215" class="st9" width="11.4" height="554"/>
										<rect x="-39.8" y="-215" class="st9" width="11.5" height="554"/>
										<rect x="5.8" y="-215" class="st9" width="11.5" height="554"/>
										<rect x="51.4" y="-215" class="st9" width="11.5" height="554"/>
										<rect x="97" y="-215" class="st9" width="11.4" height="554"/>
										<rect x="142.6" y="-215" class="st9" width="11.4" height="554"/>
										<rect x="188.2" y="-215" class="st9" width="11.5" height="554"/>
										<rect x="233.9" y="-215" class="st9" width="11.4" height="554"/>
										<rect x="279.5" y="-215" class="st9" width="11.4" height="554"/>
									</g>
									<g class="st6">
										<rect x="316.9" y="-215" class="st9" width="11.4" height="554"/>
										<rect x="362.5" y="-215" class="st9" width="11.4" height="554"/>
										<rect x="408.1" y="-215" class="st9" width="11.5" height="554"/>
										<rect x="453.7" y="-215" class="st9" width="11.5" height="554"/>
										<rect x="499.3" y="-215" class="st9" width="11.5" height="554"/>
										<rect x="545" y="-215" class="st9" width="11.5" height="554"/>
										<rect x="590.6" y="-215" class="st9" width="11.5" height="554"/>
										<rect x="636.2" y="-215" class="st9" width="11.4" height="554"/>
										<rect x="681.8" y="-215" class="st9" width="11.4" height="554"/>
										<rect x="727.4" y="-215" class="st9" width="11.4" height="554"/>
									</g>
								</g>
							</g>
							<rect x="-227.4" y="-202.9" class="st7" width="86.6" height="541.8"/>
							<rect x="751.3" y="-202.9" class="st7" width="86.6" height="541.8"/>
							<rect x="-229.2" y="-193.9" class="st10" width="1065.8" height="9.8"/>
							<g>
								<rect x="-252.9" y="-236.2" class="st7" width="1113.5" height="42.3"/>
								<line class="st11" x1="-252.9" y1="-215" x2="860.7" y2="-215"/>
							</g>
							<rect x="-195.9" y="-193.9" class="st4" width="23.9" height="534.5"/>
							<rect x="782.7" y="-193.9" class="st4" width="23.9" height="534.5"/>
						</g>
						<g>
							<g>
								<g>
									<g>
										<path class="st7" d="M19.5-105c0,33.2-26.9,60.1-60.1,60.1s-60.1-26.9-60.1-60.1c0-33.2,26.9-60.1,60.1-60.1
											S19.5-138.2,19.5-105z"/>
										<path class="st0" d="M13.6-105c0,29.9-24.3,54.2-54.2,54.2c-29.9,0-54.2-24.3-54.2-54.2s24.3-54.2,54.2-54.2
											C-10.6-159.2,13.6-134.9,13.6-105z"/>
										<g>
											<line class="st12" x1="-40.6" y1="-130.7" x2="-40.6" y2="-103.9"/>
											<line class="st12" x1="-12.7" y1="-103.9" x2="-40.6" y2="-103.9"/>
										</g>
										<path class="st13" d="M-37-105c0,1.9-1.6,3.5-3.5,3.5c-1.9,0-3.5-1.6-3.5-3.5c0-1.9,1.6-3.5,3.5-3.5
											C-38.6-108.5-37-106.9-37-105z"/>
										<path class="st1" d="M-20.9-72.4c-10.1-1.6-17.3-7-24.5-14c-4.6-4.5-9.2-9.3-15.1-12.3c-4.4-2.2-9.1-4-12.9-7.3
											c-4.3-3.8-7.4-8.9-6.1-14.9c3.3-14.9,18.5-25.5,27.9-37.1c-24.7,5-43.3,26.9-43.3,53.1c0,29.9,24.3,54.2,54.2,54.2
											c17.1,0,32.3-7.9,42.2-20.2C-5.9-71.5-13.4-71.3-20.9-72.4z"/>
									</g>
									<g>
										<path class="st7" d="M178.1-105c0,33.2-26.9,60.1-60.1,60.1S58-71.8,58-105C58-138.2,84.8-165,118-165
											S178.1-138.2,178.1-105z"/>
										<path class="st0" d="M172.2-105c0,29.9-24.3,54.2-54.2,54.2C88.1-50.8,63.8-75,63.8-105s24.3-54.2,54.2-54.2
											C148-159.2,172.2-134.9,172.2-105z"/>
										<path class="st1" d="M137.7-72.4c-10.1-1.6-17.3-7-24.5-14c-4.6-4.5-9.2-9.3-15.1-12.3c-4.4-2.2-9.1-4-12.9-7.3
											c-4.3-3.8-7.4-8.9-6.1-14.9c3.3-14.9,18.5-25.5,27.9-37.1c-24.7,5-43.3,26.9-43.3,53.1c0,29.9,24.3,54.2,54.2,54.2
											c17.1,0,32.3-7.9,42.2-20.2C152.7-71.5,145.2-71.3,137.7-72.4z"/>
										<g>
											<g>
												<line class="st12" x1="140.3" y1="-96.6" x2="117.6" y2="-110.8"/>
												<polyline class="st12" points="102.8,-87.2 105.2,-91.1 117.6,-110.8 												"/>
											</g>
											<path class="st13" d="M116.6-107.3c-1.6-1-2.1-3.2-1.1-4.8c1-1.6,3.2-2.1,4.8-1.1c1.6,1,2.1,3.2,1.1,4.8
												C120.5-106.7,118.3-106.3,116.6-107.3z"/>
										</g>
									</g>
									<g>
										<path class="st7" d="M336.7-105c0,33.2-26.9,60.1-60.1,60.1c-33.2,0-60.1-26.9-60.1-60.1c0-33.2,26.9-60.1,60.1-60.1
											C309.8-165,336.7-138.2,336.7-105z"/>
										<path class="st0" d="M330.8-105c0,29.9-24.3,54.2-54.2,54.2c-29.9,0-54.2-24.3-54.2-54.2s24.3-54.2,54.2-54.2
											C306.5-159.2,330.8-134.9,330.8-105z"/>
										<path class="st1" d="M296.3-72.4c-10.1-1.6-17.3-7-24.5-14c-4.6-4.5-9.2-9.3-15.1-12.3c-4.4-2.2-9.1-4-12.9-7.3
											c-4.3-3.8-7.4-8.9-6.1-14.9c3.3-14.9,18.5-25.5,27.9-37.1c-24.7,5-43.3,26.9-43.3,53.1c0,29.9,24.3,54.2,54.2,54.2
											c17.1,0,32.3-7.9,42.2-20.2C311.3-71.5,303.8-71.3,296.3-72.4z"/>
										<g>
											<g>
												<line class="st12" x1="260" y1="-118.4" x2="278.9" y2="-99.4"/>
												<polyline class="st12" points="298.7,-119 295.4,-115.8 278.9,-99.4 												"/>
											</g>
											<path class="st13" d="M280.6-102.6c1.4,1.4,1.4,3.6,0,5c-1.4,1.4-3.6,1.4-5,0c-1.4-1.4-1.4-3.6,0-5
												C277-104,279.3-104,280.6-102.6z"/>
										</g>
									</g>
								</g>
								<g>
									<g>
										<g>
											<rect x="439.2" y="-196.3" class="st13" width="5.2" height="180.9"/>
											<path class="st1" d="M455,9.9c0.1,7.3-5.7,13.3-12.9,13.4c-7.3,0.1-13.3-5.7-13.4-12.9c-0.1-7.3,5.7-13.3,12.9-13.4
												C448.8-3.2,454.8,2.6,455,9.9z"/>
											<polygon class="st13" points="419.6,8.6 439.2,-21.6 444.4,-21.6 464,8.6 											"/>
										</g>
									</g>
									<g>
										<g>
											<rect x="546.7" y="-196.3" class="st13" width="5.2" height="180.9"/>
											<path class="st1" d="M562.5,9.9c0.1,7.3-5.7,13.3-12.9,13.4c-7.3,0.1-13.3-5.7-13.4-12.9C536,3.1,541.8-2.9,549-3
												C556.3-3.2,562.3,2.6,562.5,9.9z"/>
											<polygon class="st13" points="527.1,8.6 546.7,-21.6 551.9,-21.6 571.5,8.6 											"/>
										</g>
									</g>
									<g>
										<g>
											<rect x="654.2" y="-196.3" class="st13" width="5.2" height="180.9"/>
											<path class="st1" d="M669.9,9.9c0.1,7.3-5.7,13.3-12.9,13.4c-7.3,0.1-13.3-5.7-13.4-12.9c-0.1-7.3,5.7-13.3,12.9-13.4
												C663.8-3.2,669.8,2.6,669.9,9.9z"/>
											<polygon class="st13" points="634.6,8.6 654.2,-21.6 659.4,-21.6 678.9,8.6 											"/>
										</g>
									</g>
								</g>
							</g>
							<rect x="396" y="-65.1" class="st13" width="314.7" height="7.8"/>
						</g>
						<g>
							<g>
								<g>
									<g>
										<g>
											<path class="st0" d="M-10.1,283c-0.3-0.2-0.7-0.5-0.8-0.9c-0.2-0.9,0.8-1.4,1.7-1.6c3.8-0.9,7.8-1.3,11.8-1
												c1.9,0.1,4.2,0.2,5.4-1.3c-4.1-2.9-9.7-1.7-14.5-3.1c-0.5-0.2-1.1-0.4-1.3-1c-0.1-0.3-0.1-0.7,0-1.1
												c0.6-2.2,3-3.4,5.1-3.8c8.5-1.8,17.2,0,25.4-2.9c2.7-1,22.1-18.6,32.5-43.7c2.4-5.7,0.7-17-5.2-27
												c-6.9-11.7-39.1-42.2-42.4-55.4c-3.3-13.3,10.2-29.4,24.2-35.8c13.7,18.3,31.9,30.8,43.3,50.8
												c3.6,6.3,21.2,25.4,21.1,44.1c-0.1,32.8-23.9,55.2-45.9,80.8c-5.4,6.3-23.8,23.3-50,17.2c-1.4-0.3-2.9,0-4.2-0.8
												c-0.3-0.2-0.7-0.4-0.8-0.8c-0.3-1.1,1.1-1.7,2.1-1.9c5.3-0.8,8.1-1.7,13.4-2.4c-4-1-5.8-0.2-9.9-0.1
												c-4.1,0.2-8.6-0.2-11.9-2.7c0.3-1.3,1.9-1.8,3.2-2c5.5-0.8,11.1-1.4,16.7-1.6c-4.7-0.3-9.3-0.5-14-0.8
												C-6.9,284-8.6,283.9-10.1,283"/>
											<g>
												<path class="st14" d="M57.2,215c0.9-1.7,2.4-2.1,3.9-3c1-0.6,2.2-1.8,2.9-2.4"/>
												<path class="st14" d="M57.2,218.4c1.8-0.8,4.8,2.7,5.4,4.2"/>
												<path class="st14" d="M59.7,216.3c1.3-0.5,4.5-0.5,5.7,0"/>
											</g>
										</g>
										<g>
											<path class="st13" d="M-53.1,14.2c1.4-1.8,2.9-3.7,4.5-5.5c9.1-9.9,24.5-16.7,33.2-16.6C3-7.5,26.8-0.9,27.7,22.4
												c0.3,6.4-1.2,10.6-0.9,11c-3-1.9-8.4-8.8-11.4-10.7C11.8,20.4-5,29.2-11,31.3c-1.1,0.4-2.2,1.8-1.6,3.1
												c3.2,6.9,0,13,0,19.9c0,0.3,0.1,0.6,0.1,0.9c1.2,1.6,2.4,3.2,3.8,4.7c2.3,2.3,12,10.7,12.9,13.9
												c1.2,4.4,4.6,12.5-11.1,18.9c-2.8,1.1-15.1,4.3-16.8,9.4c-1.2,3.4,0.1,13.9-6,19.7c-8.4,8-18.8,10.4-31,5.5
												c-7.1-2.8-9-11.9-16.9-14.1c-3.2-0.9-8.2,0.6-15.5-6.1c-7.6-7-2.7-15.4-0.8-24.5c-1.8-3.8-2.9-8.4-3.1-13.4
												c-0.6-12.2,4.4-22.5,11.6-25.1c-1.2-6.4,1.3-14.5,7.3-20.9c7-7.6,16.5-10.7,23.5-8.2"/>
											<g>
												<path class="st15" d="M-121.3,491.7c-1.2-10,0.1-101.3,9.9-159.3c10.1-59.5,54.7-106.2,54.7-106.2s85.3-0.6,91,12.9
													c28.5,67.1,40.1,123.6,44.8,161.2c1.3,10.3,8.7,75.3,7.5,85.3L-121.3,491.7z"/>
												<path class="st16" d="M-111.4,332.4c10.1-59.5,54.7-106.2,54.7-106.2s85.3-0.6,91,12.9c4.1,9.7,7.8,19.1,11.3,28.3
													c-1,0-2-0.1-2.9-0.1c-51,0-92.4,71.1-92.4,158.8c0,22.5,2.7,43.9,7.6,63.3l-79.1,2.4
													C-122.4,481.7-121.2,390.4-111.4,332.4z"/>
											</g>
											<g>
												<g>
													<path class="st13" d="M-56.8,230.3c0.4-12.5,0.2-24.8-4-36.8c-7-19.9-16.7-37.8-12.6-59.6c1.7-9.3,0.4-27.2,13.3-31.3
														c27.5-8.7,43.7-9.4,53.9-8.5C5,95,14,97.4,24.1,100.3c21,5.9,31.8,51.3,29.2,66.3c-2.1,11.8-9.1,16.4-12.1,26.1
														c-4.3,13.8-6.8,31.7-6.8,46.5c-6.7,2.2-50.6,3.9-67.4,0.7c-7.6-1.4-18.9-2-23.7-8.5C-56.8,231-56.8,230.6-56.8,230.3z"
														/>
												</g>
											</g>
											<g class="st17">
												<path class="st13" d="M-9.6,224.1c-4.1-5.2-7.8-12.5-1.3-17.7c8.1-6.5,21.2-5,27.4-13.7c-11.3-4-23.6-7.1-33.5-14.1
													c-9.7-6.9-14.8-16.4-16.5-28.1c-2.7-18,1.7-40.7,13-56.5c-9.5,0.8-22.1,3.1-38.8,8.4c-12.9,4.1-11.6,21.9-13.3,31.3
													c-4.1,21.8,5.6,39.7,12.6,59.6c4.2,12,4.4,24.3,4,36.8c0,0.3,0,0.6,0,1c4.8,6.6,16.1,7.1,23.7,8.5
													c9.2,1.7,26.7,2,41.6,1.5C2.3,236.2-4.3,230.9-9.6,224.1z"/>
											</g>
											<path class="st18" d="M-88.7,183.7c10.2-1.7,20.2,1.3,30.4-0.4c-0.6,16.3-1,33,3.9,48.4c6.6,20.6,18,33.8,33.9,47.5
												c2.3,2,8.8,6.4,11.6,7.3c14.8,4.8,26.1-4,26.7,0.2c0.4,2.6-4.5,5.6-8.8,7.6c3.6,0.4,7.7-0.7,14.8-0.3
												c1.1,0.1,0.5,2-0.4,2.7c-0.9,0.6-1.9,1-3,1.2c-1.9,0.5-3.8,1.1-5.7,1.6c10.2-0.6,10.2,1.8,9.1,2.6
												c-0.7,0.5-1.3,0.8-3.1,1.2c-2.4,0.5-4.7,0.8-7.1,1c11.6,2.2,9.4,4,5.1,4.7c-2.2,0.4-4.6-0.4-6.8,0.2
												c3.3,2.8,5.9,0.9,4.7,4.1c-0.4,1-12.6,1-24.3-3.1c0,0,0,0,0,0c-13.4-4.4-52.3-26.8-69.1-53.4
												c-12.1-19.2-14-33.5-13.6-61.3C-90.3,193.7-90,184.1-88.7,183.7"/>
											<g>
												<path class="st0" d="M-15.9,282.5c-6.7-5.2-60.8-56.2-31.1-110.5c7.6-13.9,17.1-63.5-6.3-69.1
													c-19.2-4.6-36.7,34.2-41.8,56.9c-10,44.6-8.6,97.6,22.7,118.7c6.8,4.6,23.8,14.3,42.4,23.5L-15.9,282.5z"/>
												<g>
													<path class="st14" d="M-70.5,231c4.7,1.5,8.7,0.1,13-1.3"/>
													<path class="st14" d="M-66.6,239.9c3-1.2,6.4-4.3,8.4-7"/>
													<path class="st14" d="M-60.1,246.9c1.3-2.8,3.5-7.1,3.9-8.9"/>
												</g>
											</g>
											<path class="st14" d="M-6.2,192.3c4.4-9,18.8-9.4,27.3-9.9c4.8-0.3,15.7,2.4,18.2-1.1"/>
											<path class="st19" d="M-27,94.8c-0.4,10,6,21.5,11.6,28.8c4.7,6.1,14.8,15,22.9,15.7c8.3,0.7,10.8-14.8,12.6-21.3
												c2.9-10.1,5.2-18.7-5.6-21.8c-6.3-1.8-13.7-2.7-20.2-3.5L-27,94.8z"/>
											<path class="st14" d="M-32,97.2c-0.4,11.9,7.3,25.2,15.5,33.2c5.7,5.6,20.2,19.4,30.1,15.5c9-3.5,16.9-39.6,18.1-41.6"/>
											<path class="st3" d="M-5.1,133.9c-0.4-3.2,5.3-15.4,6.6-18.3c1.4-3.3,2.1-4.8,5.5-2.7c2.7,1.7,12,13.4,9.6,18.9
												c-1.7,3.8-5,9.2-9.9,8.2c-2.4-0.5-12.5-4.7-11.4-7"/>
											<path class="st20" d="M-23.8,98.1c10.2,13.2,29.5,13.9,41.9,2.9c0-0.2,0-2.9-0.1-3.1c-3.5-16-3.8-32.8-0.8-48.9
												c-10.4,2.4-21,1.1-31.5,2.2c-0.5,0-1,0.1-1.4,0.4c-0.8,0.6-2.7,1.1-2.6,2.1c0.6,14.9,0.2,28.6-5.3,43.9
												C-23.7,97.8-23.8,98-23.8,98.1z"/>
											<path class="st21" d="M17,66.3c-1.3,4.2-3.6,8.6-7.4,10.9C4,80.5-1,77.2-5.7,74c-2.8-1.9-9.7-13.5-10.2-17
												c0.7,1.9,26.8,12.2,34,8.7"/>
											<path class="st20" d="M-19.7,37.3c4,3.2,5.4,7.9,6.1,12.3c0.2,1,0.3,2.1,0,3.1c-0.3,1-1.2,2-2.5,2.3
												c-1.2,0.3-2.5-0.1-3.4-0.7c-1-0.6-1.6-1.5-2.2-2.3c-1.7-2.7-2.7-5.6-3.6-8.5c-0.4-1.2-0.7-2.4-0.6-3.7
												c0.1-1.2,0.7-2.5,2-3.2c1.3-0.7,3.2-0.8,4.3,0.1C-19,37.5-18.8,38.5-19.7,37.3"/>
											<path class="st20" d="M7.4,6.4c6.7-1.2,13.5,3.7,16.8,10.4c3.4,6.7,3.9,14.7,3.3,22.3c-0.6,7.9-2.2,15.8-5.8,22.7
												c-2.6,4.9-4.3,13.5-12.2,13.4c-8.7-0.1-13-2.3-19.9-9.4c-3.7-3.8-5.3-7.3-6.2-12.6c-1.5-9.5-2.6-19.4-0.3-28.6
												C-14.5,15.2-8,6.7,0.5,5.4C4.3,4.8,8.2,5.7,7.4,6.4"/>
											<g>
												<path class="st0" d="M-0.9,53.3c1.9,3.3,4.3,7,7.7,7.5c2,0.3,3.9-0.6,5.4-2c1.5-1.4,2.7-3.2,3.8-5.1
													C10.5,54.8,4.7,54.6-0.9,53.3"/>
												<path class="st22" d="M4.9,47.2c0.5,1.1,2.1,2.2,6.2,1C12,48,13,47.6,13,46.8c0-0.3-0.2-0.7-0.4-0.9
													c-3.8-4.7-3.2-7.6-2.6-11.6"/>
												<path class="st22" d="M14.9,32.6c2.5-0.8,5.4-0.2,7.5,1.5"/>
												<path class="st22" d="M-5.1,31.1c2.5-1,5.4-0.7,7.6,0.8"/>
												<path class="st15" d="M16.6,38c0.1-1.3,0.8-2.3,1.6-2.2c0.8,0.1,1.4,1.2,1.3,2.4c-0.1,1.3-0.8,2.3-1.6,2.2
													C17.1,40.4,16.5,39.3,16.6,38"/>
												<path class="st15" d="M-2.2,36.9c0.1-1.3,0.8-2.3,1.6-2.2c0.8,0.1,1.4,1.2,1.3,2.4c-0.1,1.3-0.8,2.3-1.6,2.2
													C-1.7,39.3-2.2,38.2-2.2,36.9"/>
											</g>
											<path class="st13" d="M-9.9,2.4c2.2,2.5,5.9,6.1,5.4,9.9c-0.4,2.8-3.8,4.8-5.7,6.7c-1.7,1.7-4.1,4-5,6.2
												c-1.3,3.4,0.8,6.1,1.2,9.4c0.3,2.5,0.2,8-3,8.6c-3.2,0.6-3.7-5-4.5-7.3c-1.2-3.2-2.2-6-4.9-8.3c-3.1-2.6-5.8-3.9-6.7-8.3
												c-1.1-6.2,3.1-12.3,8.4-14.8C-21.8,3.2-9.6-1-9.9,4.1"/>
											<path class="st13" d="M-7.8,1.6c0.5,4.8,1,15.1,6.5,18.3c4.9,2.9,13-3.8,17.3-2.5c13.7,4.1,10.2,19.4,10.1,30.2
												c3-0.1,4.4-5,5.1-7.5c1.1-4.2,2.4-5.4,0.4-8.9c-3.9-7.1-0.3-14.3-4.9-20.8c-3.6-5.1-10.4-8-16.4-8.4C6.8,1.9-6.2-1-8.2,2
												c0.5,0.3,0.8-0.3,0.8-0.3"/>
											<path class="st0" d="M0.6,108.6c-1.7-1.2-2-3.8-3.8-5c-1.7-1.1-4.6-0.9-6.4-1.6c-5.4-2.3-6.8-7.3-10.3-11.3
												c-2.2-2.5-3.4-0.5-6.4,0.9c-1.6,0.7-4.6,1.2-5.6,2.3c-2.3,2.7,6.6,21.9,9,21.4c2.6-0.5,4.3-3.8,6.6-5.4
												c6.6-4.6,12.4,1.6,16.4-1"/>
											<path class="st0" d="M2.4,109c1.4-1.1,1.7-3.6,3.2-4.7c1.4-1,3.9-0.8,5.5-1.5c4.6-2.1,5.3-5.6,6.4-10.3
												c0.7-3,5.3-0.8,7.9,0.6c1.4,0.7,3.9,1.1,4.8,2.2c2,2.5-5.6,20.4-7.7,20c-2.2-0.4-3.7-3.6-5.6-5.1
												c-5.6-4.3-9.4,2-12.7-0.4L2.4,109z"/>
											<path class="st3" d="M-5.3,110.1c-1.8,3.8-1.2,13.7,4.1,14.4c2.3,0.3,10.7,0.1,12.2-1.9c1-1.3,0.3-5,0.3-6.6
												c0-1.9-0.1-4-0.8-5.7c-1.4-3.6-7-2.3-10.2-1.5c-1.6,0.4-4.9,0.5-5.7,1.7"/>
											<g>
												<path class="st0" d="M26.2,44.9C27,61.4,23.3,76.2,7,75.9c-12.8-0.3-22.6-12-25-27.5c-0.5-3,20-5,27.5-4.2
													C13.8,44.7,26.2,44.9,26.2,44.9z"/>
												<g>
													<path class="st23" d="M22.1,51.7c0.1,0.5,0.2,2.5-0.5,2.7c-0.4,0.1-2-1.8-2.3-2.1c-1.9-1.5-4.1-2-6.1-3
														c1.9,0.4,3.8,0,5.7,0.7c1.1,0.4,2.5,1.7,3.4,1.9"/>
													<path class="st23" d="M11.2,54.6c1.7,0.7,11.1,1.6,8.8,5.2c-2.6-1.4-5.3-3.3-7.9-4.7"/>
													<path class="st23" d="M9.5,58.8c2.2,2,4.6,3.8,6.9,5.9c1,1,1,0.5,0.5,1.5c-0.5,0.8-1.3,1.4-1.8,1
														c-0.3-0.2-0.8-1.6-1.1-2c-0.6-0.9-1-1.8-1.6-2.7c-0.6-1-1.7-2.3-2.1-3.1"/>
													<path class="st23" d="M-5.4,50.5c-0.2,0.4-0.6,2.4,0,2.7c0.4,0.2,2.2-1.4,2.6-1.6c2.1-1.1,4.4-1.2,6.5-1.8
														c-1.9,0-3.7-0.7-5.7-0.4c-1.1,0.2-2.7,1.2-3.6,1.2"/>
													<path class="st23" d="M4.9,55.5C3.1,55.8-6.3,55-4.7,58.9c2.8-0.9,5.7-2.3,8.6-3.1"/>
													<path class="st23" d="M5.8,59.9c-2.5,1.5-5.2,2.8-7.7,4.5C-3,65.1-3,64.7-2.6,65.8c0.3,0.9,1,1.6,1.6,1.4
														c0.3-0.1,1.1-1.4,1.4-1.7c0.7-0.7,1.3-1.6,2-2.4c0.8-0.9,2-1.9,2.6-2.6"/>
												</g>
											</g>
											<g>
												<path class="st24" d="M-19.6,7.5c-8.1-3-16.1,0.1-19.3,8.9c-2.5,6.7-1,14.4-1.4,21.6c-0.4,8.2-2.8,16.3-9.7,21
													c-4.7,3.3-8.6,2.2-13.5,3.1c-4.8,0.9-7.4,5.6-9.3,10.4c-1.4,3.5-2.5,9.5,0.4,12.4"/>
												<path class="st24" d="M-48.4,94.2c-3.4-1.5-4.1-6.2-3.4-9.4c1.2-5.2,4.3-5.4,8.5-7c4-1.5,7.5-4.1,9.3-8.1
													c2-4.6-0.3-8-0.1-12.7"/>
												<path class="st24" d="M-75.9,58.3c-1.6-2.9-1.2-8.2,1.3-10.6c2.2-2.1,5.5-1.4,7.6-3.8c3.8-4.1-3-14.9,6.3-15.7"/>
												<path class="st24" d="M6.2,11.3c1.4-2.3,5-4.4,6.8-1.7"/>
												<path class="st24" d="M-86,98.4c3.5-3.6,4.6-10.2,2.6-14.8c-1.6-3.5-6.4-8.2-0.9-11.4"/>
												<path class="st24" d="M-67.4,96.3c3.1-4.1-0.8-10,3.8-13.5"/>
												<path class="st24" d="M-28.9,29.1c2.3-1.8,0.4-3.6,1.1-5.8c0.7-2,3.2-3.7,4.8-4.7"/>
											</g>
										</g>
									</g>
									<path class="st25" d="M52,411.9c-23.2-4.8-43.8-39-54.4-51.9"/>
									<path class="st25" d="M40.8,440.3c-10.2-2.2-23.3-11-31-18.5c-7.7-7.5-13.5-22.7-21-27.2"/>
								</g>
								
									<rect x="19.1" y="146.6" transform="matrix(-0.9743 0.2253 -0.2253 -0.9743 100.2093 292.8997)" class="st26" width="28.6" height="11.2"/>
							</g>
							<g>
								<g>
									<path class="st15" d="M203.4,256.4c0,0-20.3,46.2-19.7,67.4c0.7,21.3-3.8,45.4,0,73.6c3.8,28.2,69.5,9.2,69.5,9.2l6.9-46.6
										l9.6,46.6h62.5c0,0-15-130.5-20.7-140.8C305.8,255.5,203.4,256.4,203.4,256.4z"/>
									<g>
										<g>
											<path class="st20" d="M274.8,29.7c0,0-0.1,11.8,0,27.5c0.1,15.7,3.2,24.3,3.2,24.3S254.3,90,247.8,88
												c-6.6-1.9-10.2-4.1-12.5-5c-2.3-0.9-0.2-53.8-0.2-53.8L274.8,29.7z"/>
											<path class="st27" d="M274.7,32.5c0,0-0.1,5.1-0.1,13.1c-4.3,8.5-12,16.4-21.7,14.8c-7.7-1.2-11.9-6.8-14.4-12.7
												c-1.2-2.7-2.5-5.4-3.8-8.2c0.2-4.5,0.3-7.4,0.3-7.4L274.7,32.5z"/>
											<path class="st20" d="M274.4-14.5c7.9,2.7,7.4,15.1,7,21.2c-0.4,6.9-2.3,14-3.1,20.9C277.2,38,273,54,255.6,53.8
												c-7.8-0.1-16.5-8.1-19-14c-2.7-6-4.4-11.2-5.8-17.5c-2.6-12-1.4-34.6,14-40.1c10.5-3.7,24.6-1.3,32.3,5.7"/>
											<path class="st15" d="M267.4-22.9c20.1,2.6,19.2,11.7,22.4,22.9c1.7,5.8,10.5,11.2,3.5,16.8c-5.9,4.7-12.9,3.4-18.8-0.1
												c-6.8-4.1-9.6-10.9-15.9-15.5c-2.5-1.8-5.4-3.6-8.6-4.4c-3.2-0.9-7.2,0-10.1-1.4c-6.2-3.2-4.9-10.3-0.5-14.1
												c4.4-3.8,12.8-4.8,18.8-4.6C258.2-23.4,265.1-23.2,267.4-22.9z"/>
											<path class="st15" d="M229.4,16.3c1.2,1.8,1,3.4,3.3,4.4c1.4,0.6,2.4,0.4,2.7-1.1c0.4-2.1-0.3-4.4-0.1-6.5
												c0.2-2.4,1.7-4.4,2.8-6.5c2.2-4.4,4.3-8.8,6.8-13.1c1.8-3.1,1.3-6.9-0.5-9.9c-2.3-3.8-4.8-0.7-7.1,0.8
												c-2.5,1.6-5.3,4.3-6.9,6.8c-2.4,3.7-3.5,8-3.9,12.5c-0.3,2.8,0,5.9,1.1,8.4c0.4,1,1.7,4.9,2.3,5"/>
											<path class="st20" d="M272.1,25.5c0,3.8,3.2,6.8,7.2,6.8c4,0,7.2-3,7.2-6.8c0-3.7-3.2-6.8-7.2-6.8
												C275.3,18.7,272.1,21.7,272.1,25.5z"/>
											<path class="st20" d="M222.4,24c0,4.5,3.2,8.1,7.2,8.1c4,0,7.2-3.6,7.2-8.1c0-4.5-3.2-8.1-7.2-8.1
												C225.7,15.9,222.4,19.5,222.4,24z"/>
											<g>
												<path class="st22" d="M257.9,11c1.3,4.3,6.7,16.1,6.1,17.7c-1,2.6-6.1,1.9-8,2.2"/>
												<line class="st22" x1="251.1" y1="9.4" x2="242.9" y2="9.4"/>
												<line class="st22" x1="270.5" y1="9.4" x2="265" y2="9.4"/>
												<path class="st15" d="M247.4,14.6c0.1-1.3,0.8-2.3,1.6-2.2c0.8,0.1,1.4,1.2,1.3,2.4c-0.1,1.3-0.8,2.3-1.6,2.2
													C247.9,17,247.3,15.9,247.4,14.6"/>
												<path class="st15" d="M266.3,14.6c0.1-1.3,0.8-2.3,1.6-2.2c0.8,0.1,1.4,1.2,1.3,2.4c-0.1,1.3-0.8,2.3-1.6,2.2
													C266.8,17,266.2,15.9,266.3,14.6"/>
											</g>
											<g>
												<path class="st0" d="M278,24.5c0.8,16.5-3.7,31.3-20,31c-12.8-0.3-23.2-12.1-25.6-27.6c-0.5-3,20.6-4.8,28.1-4
													C264.8,24.2,278,24.5,278,24.5z"/>
												<g>
													<path class="st18" d="M273.9,34.7c-0.4,0.1-3.2-2.6-3.6-2.9c-1.9-1.5-4.1-2-6.1-3c1.9,0.4,3.8,0,5.7,0.7
														c1.1,0.4,3.9,2,4.8,2.2L273.9,34.7z"/>
													<path class="st18" d="M262.2,34.2c1.7,0.7,11.1,1.6,8.8,5.2C268.4,38,262.2,34.2,262.2,34.2z"/>
													<path class="st18" d="M260.5,38.8c2.3,2,4.6,3.3,6.9,5.4c1,1,1,0.5,0.4,1.5c-0.5,0.8-1.3,1.4-1.8,1.1
														c-0.3-0.2-0.8-1.6-1.1-2c-0.6-0.9-1-1.5-1.6-2.3C262.6,41.5,260.5,38.8,260.5,38.8z"/>
													<path class="st18" d="M238.2,33.9c0.4,0.2,9.4-3,9.8-3.1c3-0.8,4.6-0.8,6.7-1.4c-1.9,0-3.7-0.7-5.7-0.4
														c-1.1,0.2-10.1,2.3-11.1,2.4L238.2,33.9z"/>
													<path class="st18" d="M255.8,35.1c-1.4,0.3-11.2,1.1-14.3,3.3c-0.9,0.6-0.2,1.3,0.1,2.1
														C244.5,39.6,255.8,35.1,255.8,35.1z"/>
													<path class="st18" d="M256.8,39.4c-3.2,1.7-6.5,3.2-9.6,5.1c-1.5,0.9-1.4,0.4-0.9,1.6c0.4,1,1.3,1.9,2.1,1.6
														c0.4-0.1,1.4-1.6,1.8-2c0.9-0.8,1.7-1.8,2.5-2.7C253.5,42,256.8,39.4,256.8,39.4z"/>
												</g>
											</g>
										</g>
										<g>
											<g>
												<g>
													<path class="st18" d="M149.1,188.8c-15.4-17.3-55.6-69.5-53.9-78.5c1-5.3,8.4-10.5,7.9-20c-0.2-4.2-1.9-10.7-5.9-12.4
														c-0.6-0.3-1.1-0.4-1.5-0.5c1.5-1.5,0.3-6.3-1.7-8c-5.2-4.4-13.9,2.7-14.8,13c-0.1,1.3-1,6.8-1.7,11.9
														c-1-11.5-13-34.3-17.2-28.1c-1,1.5,4,7.5,5.6,11.1c0.8,1.7,2,4,2.6,6.3c0.5,1.7,0.4,3.4,0.8,4.9
														c-0.8-1.3-1.7-2.5-2.8-3.8c-4.2-4.7-25-22-25.6-13.2c-0.3,4.2,11.5,8,17.1,13.4c2,2,3.6,4,4.8,6.1
														c-1.8-1.1-3.5-2.2-4.6-3.3c-2.8-2.9-6-6.1-7.3-5.3c-1.6,1-1.8,7.5,5.3,14.3c13.6,13,19.6,29.5,22.5,35.3
														c2.7,5.3,15.9,32.6,26.2,46.5c12.6,17.1,26,40.3,40.7,41.4c4,0.3,10.1-5.1,10.7-9.3
														C158.8,203.3,154.2,194.5,149.1,188.8z M87.4,80.6c0.4-1.3,1.2-4.3,2.8-4.7c1.4-0.4,1.3,0.8,2.5,1.3
														c0.6,0.3,1.2,0.5,1.6,0.5c-0.7,1.1,0.5,4,1.1,5.6c1.8,5.1,0.9,3.7-4.1,9.8C89.1,95.9,86.1,85,87.4,80.6z"/>
													<path class="st13" d="M69.1,130.9l32.2-18.8l56.3,72c0,0,2.5-74,9.9-79.2c7.4-5.1,30.4,121,30.4,121
														s-12.7,23.2-22.2,27.3c-9.6,4.1-17.2,8-37.6-13.9C117.8,217.5,69.1,130.9,69.1,130.9z"/>
													<path class="st28" d="M186.9,242.8c0,0-7.9-53.6-12.6-70.1c-4.7-16.5-8.8-64.6-6.8-67.7c2-3.1,9.7-17.4,19.4,11
														c12.3,36,12.5,58.2,17.1,78.7c4.6,20.5,0,30.4-3.4,33.7C197.1,231.6,186.9,242.8,186.9,242.8z"/>
												</g>
												<path class="st14" d="M92.5,118.1c2.4,3.3,9.7,10.7,12,13.4"/>
												<path class="st5" d="M101.1,119.4c0,0.7-0.6,1.3-1.3,1.3c-0.7,0-1.3-0.6-1.3-1.3c0-0.7,0.6-1.3,1.3-1.3
													C100.5,118.1,101.1,118.7,101.1,119.4z"/>
												<path class="st5" d="M105.7,123.5c0,0.7-0.6,1.3-1.3,1.3c-0.7,0-1.3-0.6-1.3-1.3c0-0.7,0.6-1.3,1.3-1.3
													C105.2,122.2,105.7,122.8,105.7,123.5z"/>
											</g>
											<g>
												<path class="st13" d="M342.3,104.8c0,0,12.3,25.7,29.5,62.1c17.2,36.4,21.5,36.8,21.9,52.5c0.4,15.7-3.1,21.8-15.7,29.5
													c-12.7,7.7-63.2,35.6-63.2,35.6L299.8,239l47-26.4l-30.1-50.2c0,0,6.1-45.6,10.7-52.1
													C332,103.7,342.3,104.8,342.3,104.8z"/>
												<path class="st28" d="M328.5,276.9l-5.6-51l6.1-3.4c0,0,4,20.9,11.9,27.2c7.8,6.3,9.2,15.1,10,14.6
													C351.6,263.9,328.5,276.9,328.5,276.9z"/>
												<path class="st28" d="M346.8,212.5l-20.2-33.6l17.2-71c0,0,2.4,28.7,5.2,48.9c2.8,20.2,2.7,31.4,1.9,39.6
													C350,204.6,346.8,212.5,346.8,212.5z"/>
												<g>
													<path class="st14" d="M349.8,215.8c1.2,2.6,4.6,5.1,6.1,6.9"/>
													<path class="st14" d="M351.8,212.5c2.3,0.9,5.6,1.3,7.4,1.8"/>
													<path class="st14" d="M352.3,208.4c2-0.3,4.8-1.6,6.1-2.6"/>
												</g>
											</g>
											<g>
												<path class="st13" d="M218.7,79.5c-10.5,3.4-19,4.6-29.2,9.5c-6.5,3.1-15.6,7-20.1,12.8c-6.4,8.4-6.1,19.4-3,29.1
													c6.8,21,12.2,42.7,17.8,64.1c4.2,15.9,8.2,31.8,12.3,47.7c2.3,8.7,5.5,16.8,8.2,25.3c3.2,0.5,6.7-1.1,10-1.1
													c4,0,8.1,0,12.1,0c14.3,0,28.1,1.1,42.2-1c5.3-0.8,11-2.6,16.4-2.3c5.2,0.3,8.9,0,14.3-2c8-3,14.6-1,22.5-2
													c0.5-8.9-1.2-18.1-0.1-26.9c1.7-13.6,6.3-26.8,9.3-40.2c4-17.9,9.6-35.4,13.7-53.3c2.6-11.1,2.4-25.9-3.8-35.9
													c-5.1-8.1-14.7-12.2-23.7-14.4c-8.8-2.2-17.5-4.7-25.7-8.4c-5.1-2.3-8-9.4-14.2-7.5c-8.2,2.5-12.3,8.2-21.4,8.3
													c-7.5,0.1-16.2,1.4-23.5-0.7c-2.3-0.7-4.2-3.5-6.5-3.9c-2.2-0.4-6.1,1.9-5.8,3.5L218.7,79.5z"/>
												<path class="st13" d="M194,232.5c0,0-4.8,41.7-10.2,55.9c-5.5,14.2-9.3,29.9-9.3,33.3c0,3.4-3.4,9.6,15.7,16.5
													c19.2,6.9,38.3,18,47.5,9.2c9.2-8.8,15.3-87,15.3-87s10,68.2,12.6,75.9c2.7,7.7,6.1,12.3,13.8,11.9
													c7.7-0.4,26.8-3.8,36.4-7.3c9.6-3.4,14.2-6.5,16.1-15c1.9-8.4-9-97.6-9-97.6s-128.9,4.2-128.3,3.2"/>
												<path class="st2" d="M222.5,82.7c0,10.1,0.1,20.4,3.8,29.9c1.7,4.4,2.6,8.9,4.3,13.3c1.9,4.9,4.4,9.7,6.5,14.5
													c3.2,7.4,7,14.7,10.7,21.7c1.8,3.4,4.5,11.2,9.1,10.5c3.9-0.5,6.3-4.8,8.2-7.9c3-4.9,4.9-10.4,7.2-15.6
													c3.9-8.8,4.9-19.1,7.1-28.4c2.3-9.5,5-21.8,4.9-31.4c-0.1-4.9-1.2-7.8-3.3-12.3c-4.5-9.4-15.9,3.1-24.3,4
													c-7.2,0.7-17.1-6.6-24-4.4c-2.3,0.7-4.5,1.5-6.4,3c-1.3,1.1-3.3-1.7-4.6-0.8"/>
												<path class="st28" d="M222.5,82.7c-0.3,10.8-0.8,29,12,58.5c6.8,15.8,17.2,19.3,20.5,35.5c-9.6,5.2-50.7-16.5-57.2-53.6
													c-1.8-10.1-1.5-16.3,3.4-25.1c2-3.7,5.1-7.9,8.3-10.6c2.7-2.3,3-1.8,4.2-4"/>
												<path class="st13" d="M223.2,78.9c0,0,3,22.3,8.6,39.2c5.6,17,11,28.9,17.1,40c6.1,11.1,8.1,14.6,8.1,14.6
													s5.1,6.3,3.3,8c-1.8,1.6-21-1.8-32.1-20.4c-11.1-18.6-17.5-32.5-22.2-47.3c-4.7-14.9-6.9-24.7-5.7-28.3
													C201.3,81,223.2,78.9,223.2,78.9z"/>
												<path class="st28" d="M287.3,83.4c0.3,10.8-4,28.6-15.5,58.1c-6.1,15.8-14.7,21.9-17.7,38.2
													c8.6,5.2,43.4-13.1,56.2-58.9c2.7-9.9,4.4-17.2,0-26c-1.8-3.7-13.2-4.4-16.1-7.1c-2.4-2.3-2.7-1.8-3.7-4L287.3,83.4z"/>
												<path class="st13" d="M287.3,77c0,0-2.4,26.5-8,43.4c-5.6,17-11,28.9-17.1,40c-6.1,11.1-8.1,14.6-8.1,14.6
													s-5.1,6.3-3.3,8c1.8,1.6,21-1.8,32.1-20.4c11.1-18.6,17.5-32.5,22.2-47.3c4.6-14.9,5.8-23.5,4.6-27.1
													c-1.2-3.6-9.3-5.3-12.5-6.9C294.1,79.5,287.3,77,287.3,77z"/>
												<line class="st14" x1="253.1" y1="194.7" x2="253.1" y2="260.4"/>
												<g>
													<path class="st5" d="M262.4,198.7c0,0.7-0.6,1.3-1.3,1.3c-0.7,0-1.3-0.6-1.3-1.3c0-0.7,0.6-1.3,1.3-1.3
														C261.8,197.4,262.4,198,262.4,198.7z"/>
													<path class="st5" d="M262.4,216.9c0,0.7-0.6,1.3-1.3,1.3c-0.7,0-1.3-0.6-1.3-1.3c0-0.7,0.6-1.3,1.3-1.3
														C261.8,215.6,262.4,216.2,262.4,216.9z"/>
													<path class="st5" d="M262.4,235.1c0,0.7-0.6,1.3-1.3,1.3c-0.7,0-1.3-0.6-1.3-1.3c0-0.7,0.6-1.3,1.3-1.3
														C261.8,233.8,262.4,234.4,262.4,235.1z"/>
													<path class="st5" d="M262.4,253.3c0,0.7-0.6,1.3-1.3,1.3c-0.7,0-1.3-0.6-1.3-1.3c0-0.7,0.6-1.3,1.3-1.3
														C261.8,252,262.4,252.5,262.4,253.3z"/>
												</g>
												<path class="st23" d="M228.4,74.4c-2.4,1.3-3.9,3.3-5.1,5.7c3.9,0.6,8.9,4,10.6,8c2,4.5,0.3,10.4,2.1,14.9
													c2.1,5.3,8-1.7,11.6-2.5c4.3-0.9,7.5,4.3,12.1,2.4c1.5-0.6,2.5-2.8,4-3.3c1.8-0.6,3.7,0.7,5.2,1.5
													c2.2,1,6.9,4.6,9.2,2.2c1.8-1.9,0.9-8.5,1.1-11c0.4-3.8,0.7-7.5,3.6-10.2c-1-3-2.6-3.9-3.7-6.8c-3-0.3-5.1,2.7-7.2,4.2
													c-2.1,1.4-4.1,2.3-6.4,3c-4.4,1.5-10.2,3.3-14.9,2.1c-4.7-1.2-7.9-6.3-12.5-8.1c-4-1.6-8-5.4-10.6-1.5"/>
												<path class="st0" d="M220.4,79.5c0,0,8.3-12.9,11.2-15.1c1.4-1.1,12.1,8.4,16.9,11.2c4.9,2.8,8.2,5.5,8.2,5.5l-6.6,12.3
													c0,0-9.2-5.3-14.3-7.9C230.7,82.9,220.4,79.5,220.4,79.5z"/>
												<path class="st0" d="M275,64.3l-18.3,16.8l7.9,13.7c0,0,13.6-8.9,18.2-12.5c4.6-3.6,5.7-4.5,4.9-6.6
													C287,73.6,275,64.3,275,64.3z"/>
												<g>
													<path class="st3" d="M263.1,93.7c0,4.4-3.2,7.9-7.1,7.9c-3.9,0-7.1-3.5-7.1-7.9c0-4.4,3.2-7.9,7.1-7.9
														C259.9,85.8,263.1,89.3,263.1,93.7z"/>
													<path class="st3" d="M252.3,88.3c0,0-6.3-7.5-11.1-9.1c-4.9-1.5-7.4,2.7-6.9,6.2c0.5,3.5,1.5,8.4,1.5,10.7
														c0,2.3-0.5,5.7,1.9,5.5c2.4-0.2,15.6-6.6,15.6-6.6L252.3,88.3z"/>
													<path class="st3" d="M261.3,88.3c0,0,6.3-7.5,11.1-9.1c4.9-1.5,7.4,2.7,6.9,6.2c-0.5,3.5-1.5,8.4-1.5,10.7
														c0,2.3,0.5,5.7-1.9,5.5c-2.4-0.2-15.6-6.6-15.6-6.6L261.3,88.3z"/>
												</g>
											</g>
										</g>
									</g>
								</g>
								
									<rect x="299" y="156.2" transform="matrix(-0.1056 0.9944 -0.9944 -0.1056 506.23 -114.3869)" class="st26" width="11.2" height="28.6"/>
							</g>
						</g>
						<g>
							<g>
								<rect x="-242.2" y="360.5" class="st7" width="151.9" height="340.7"/>
								<g>
									<rect x="-90.4" y="360.5" class="st1" width="938.8" height="340.7"/>
									<g>
										<g>
											<line class="st11" x1="-90.4" y1="437.2" x2="848.4" y2="437.2"/>
											<line class="st11" x1="-90.4" y1="495.3" x2="848.4" y2="495.3"/>
											<line class="st11" x1="-90.4" y1="553.4" x2="848.4" y2="553.4"/>
											<line class="st11" x1="-90.4" y1="611.5" x2="848.4" y2="611.5"/>
											<line class="st11" x1="-90.4" y1="669.7" x2="848.4" y2="669.7"/>
										</g>
										<g>
											<line class="st11" x1="-18.9" y1="377.1" x2="-18.9" y2="437.2"/>
											<line class="st11" x1="-18.9" y1="494.8" x2="-18.9" y2="553.4"/>
											<line class="st11" x1="-18.9" y1="611.5" x2="-18.9" y2="669.7"/>
										</g>
										<g>
											<line class="st11" x1="129.3" y1="377.1" x2="129.3" y2="437.2"/>
											<line class="st11" x1="129.3" y1="494.8" x2="129.3" y2="553.4"/>
											<line class="st11" x1="129.3" y1="611.5" x2="129.3" y2="669.7"/>
										</g>
										<g>
											<line class="st11" x1="277.5" y1="377.1" x2="277.5" y2="437.2"/>
											<line class="st11" x1="277.5" y1="494.8" x2="277.5" y2="553.4"/>
											<line class="st11" x1="277.5" y1="611.5" x2="277.5" y2="669.7"/>
										</g>
										<g>
											<line class="st11" x1="425.7" y1="377.1" x2="425.7" y2="437.2"/>
											<line class="st11" x1="425.7" y1="494.8" x2="425.7" y2="553.4"/>
											<line class="st11" x1="425.7" y1="611.5" x2="425.7" y2="669.7"/>
										</g>
										<g>
											<line class="st11" x1="573.9" y1="377.1" x2="573.9" y2="437.2"/>
											<line class="st11" x1="573.9" y1="494.8" x2="573.9" y2="553.4"/>
											<line class="st11" x1="573.9" y1="611.5" x2="573.9" y2="669.7"/>
										</g>
										<g>
											<line class="st11" x1="722" y1="377.1" x2="722" y2="437.2"/>
											<line class="st11" x1="722" y1="494.8" x2="722" y2="553.4"/>
											<line class="st11" x1="722" y1="611.5" x2="722" y2="669.7"/>
										</g>
										<g>
											<line class="st11" x1="55.2" y1="436.7" x2="55.2" y2="495.3"/>
											<line class="st11" x1="55.2" y1="553.4" x2="55.2" y2="611.5"/>
										</g>
										<g>
											<line class="st11" x1="203.4" y1="436.7" x2="203.4" y2="495.3"/>
											<line class="st11" x1="203.4" y1="553.4" x2="203.4" y2="611.5"/>
										</g>
										<g>
											<line class="st11" x1="351.6" y1="436.7" x2="351.6" y2="495.3"/>
											<line class="st11" x1="351.6" y1="553.4" x2="351.6" y2="611.5"/>
										</g>
										<g>
											<line class="st11" x1="499.8" y1="436.7" x2="499.8" y2="495.3"/>
											<line class="st11" x1="499.8" y1="553.4" x2="499.8" y2="611.5"/>
										</g>
										<g>
											<line class="st11" x1="647.9" y1="436.7" x2="647.9" y2="495.3"/>
											<line class="st11" x1="647.9" y1="553.4" x2="647.9" y2="611.5"/>
										</g>
										<g>
											<line class="st11" x1="796.1" y1="436.7" x2="796.1" y2="495.3"/>
											<line class="st11" x1="796.1" y1="553.4" x2="796.1" y2="611.5"/>
										</g>
									</g>
									<path class="st29" d="M671.2,696.2c-65.9-22.5-134.3-35.5-203.1-45.5C395,640.1,321,637.4,248,626.7
										c-28.5-4.2-56.8-9.5-84.6-17c-23-6.2-46-13.9-67-25.4c-19.1-10.5-37.9-24.7-47.9-44.7c-11.7-23.4-8.2-49.4,7.3-70.1
										c16.3-21.7,43.6-32.1,69.3-38c29.6-6.8,60.1-8.5,90.3-9c31.4-0.5,62.9-0.4,94.3-1.1c37.8-0.9,75.5-2.2,113.3-3.8
										c75.5-3.2,151-8.4,226.6-8.9c37.2-0.3,74.5,1.5,111.6,1.2c29-0.3,58.2-4.3,87.1-1.9v-47.4H-90.4v340.7h775.5
										C680.6,699.5,675.9,697.8,671.2,696.2z"/>
								</g>
							</g>
							<rect x="-242.2" y="378.3" class="st7" width="1090.7" height="20.2"/>
							<g>
								<rect x="-273.3" y="337.8" class="st7" width="1152.8" height="43.8"/>
								<line class="st11" x1="-273.3" y1="359.8" x2="879.5" y2="359.8"/>
							</g>
						</g>
						<g>
							<g>
								<rect x="434.7" y="131.2" class="st5" width="229.2" height="157.5"/>
								<polygon class="st30" points="434.7,131.2 663.9,288.7 434.7,288.7 								"/>
								<polygon class="st13" points="493.4,344.8 528.4,235 573.5,235 617.8,344.8 								"/>
							</g>
							<g>
								<polygon class="st15" points="45.6,346.4 45.6,218.6 140.3,226.2 140.3,346.4 								"/>
								<polygon class="st0" points="52.4,337.3 52.4,227.8 133.5,234.3 133.5,337.3 								"/>
								<g>
									<polygon class="st15" points="233.3,346.4 233.3,218.6 138.6,226.2 138.6,346.4 									"/>
									<polygon class="st0" points="226.5,337.3 226.5,227.8 145.4,234.3 145.4,337.3 									"/>
								</g>
								<polygon class="st31" points="52.4,227.8 133.5,337.3 52.4,337.3 								"/>
								<polygon class="st31" points="145.4,234.3 226.5,337.3 145.4,337.3 								"/>
							</g>
						</g>
					</g>
					<line class="st32" x1="-223.7" y1="742.2" x2="829.8" y2="742.2"/>
				</g>
				<rect x="-243.9" y="680.2" class="st7" width="1092.3" height="24"/>
			</g>
			<g>
				<g>
					<g>
						<rect x="294.3" y="384.7" class="st33" width="10.9" height="137.2"/>
						<rect x="354.8" y="384.7" class="st33" width="10.9" height="137.2"/>
						<rect x="299.6" y="384.7" class="st0" width="3.1" height="137.2"/>
						<rect x="360.3" y="384.7" class="st0" width="3.1" height="137.2"/>
						<g>
							<rect x="291" y="372.5" class="st15" width="16.9" height="18.5"/>
							<rect x="352" y="372.5" class="st15" width="16.9" height="18.5"/>
						</g>
						<path class="st15" d="M378.7,362.9c0,6.1-5,11.1-11.1,11.1h-75.4c-6.1,0-11.1-5-11.1-11.1l0,0c0-6.1,5-11.1,11.1-11.1h75.4
							C373.8,351.8,378.7,356.8,378.7,362.9L378.7,362.9z"/>
						<path class="st9" d="M338.3,366.8c-9.8,0.5-23.5,4.2-32.3-1.5c-6-3.9-4.4-9.4-0.6-13.4h-13.2c-6.1,0-11.1,5-11.1,11.1
							c0,6.1,5,11.1,11.1,11.1h75.4c3.9,0,7.3-2,9.3-5.1C364.3,366.2,350.6,366.1,338.3,366.8z"/>
					</g>
					<g>
						<path class="st15" d="M462.4,787.4c2.1-8.5,3.3-17.5,3.3-26.8v-80.4c0-55.5-40.7-100.5-90.9-100.5h-80.3
							c-50.2,0-90.9,30.7-89.7,100.8l-1.2,80.2c0,9.3,1.2,18.3,3.3,26.8L462.4,787.4L462.4,787.4z"/>
						<path class="st9" d="M222.1,660.8c10.3-10.8,21.7-20.6,35.5-26.8c12.8-5.7,26.4-8.6,40.3-10.2c9.3-1.1,18.9-1.3,27.7-4.9
							c4.6-1.9,9.3-4.5,12.9-8c2.4-2.2,4.6-4.8,7.4-6.5c6.6-4.2,14.7-4.2,22.2-4.6c8.7-0.4,40.4,1,46.2-10.2
							c-12-6.4-25.4-10-39.5-10h-80.3c-50.2,0-90.9,30.7-89.7,100.8l0,0.4C210.2,673.8,216,667.2,222.1,660.8z"/>
						<g>
							<path class="st13" d="M429.9,789.2c1.9-7.5,2.9-15.3,2.9-23.4v-70.3c0-48.6-35.6-87.9-79.5-87.9h-70.2
								c-43.9,0-79.5,39.4-79.5,87.9v70.3c0,8.1,1,16,2.9,23.4H429.9z"/>
							<path class="st32" d="M429.9,789.2c1.9-7.5,2.9-15.3,2.9-23.4v-70.3c0-48.6-35.6-87.9-79.5-87.9h-70.2
								c-43.9,0-79.5,39.4-79.5,87.9v70.3c0,8.1,1,16,2.9,23.4"/>
						</g>
						<path class="st12" d="M238.1,611.2c15.4-20.4,142.5-17.8,179.1,5.1c22.2,13.9,25.4,26.5,29.3,46.4c1.8,9.3,5.3,29.5,5.7,44.2"
							/>
						<g>
							<path class="st13" d="M391.9,770.7c0-1.2,0.1-2.4,0.1-3.7v-60c0-41.4-24.7-75-55.2-75H288c-30.5,0-55.2,33.6-55.2,75v60
								c0,1.2,0.1,2.5,0.1,3.7L391.9,770.7L391.9,770.7z"/>
							<path class="st32" d="M381.1,756.4c0-0.4,0-0.8,0-1.2v-46.8c0-32.3-21.4-58.5-47.7-58.5h-42.1c-26.3,0-47.7,26.2-47.7,58.5
								v46.8c0,0.4,0,0.8,0,1.2"/>
							<polygon class="st15" points="267,740 267,658 277.4,652.4 							"/>
							<path class="st15" d="M356.9,732.8c0-2.4-1.5-76.4-1.5-76.4l8.6,7.1L356.9,732.8z"/>
						</g>
						<path class="st34" d="M309.6,662.9c5,0,9.1-5.8,9.1-12.9h-18.3C300.4,657.1,304.5,662.9,309.6,662.9z"/>
						<path class="st9" d="M365.4,758.9c-12.5-4.6-28-4.5-37-15.6c-4.4-5.3-5.3-12.5-8.8-18.3c-4.2-6.9-10.8-10.7-18.5-12.5
							c-11.9-2.8-27.2-2.8-36.2-12.3c-6.4-6.8-8.9-15.8-6.9-25c3.9-17.8,18.9-35.9,36.2-43.2H288c-30.5,0-55.2,33.6-55.2,75v60
							c0,1.2,0.1,2.5,0.1,3.7h153.9C380.4,765.8,373.2,761.7,365.4,758.9z"/>
					</g>
					<g>
						<path class="st15" d="M405.8,589.7c1.3-5.1,2-10.4,2-16v-47.9c0-33.1-24.2-59.9-54.1-59.9h-47.8c-29.9,0-54.1,18.3-53.4,60
							l-0.7,47.7c0,5.5,0.7,10.9,2,16L405.8,589.7L405.8,589.7z"/>
						<path class="st9" d="M262.8,514.3c6.1-6.4,12.9-12.3,21.1-15.9c7.6-3.4,15.7-5.1,24-6.1c5.5-0.7,11.3-0.8,16.5-2.9
							c2.7-1.1,5.5-2.7,7.7-4.7c1.4-1.3,2.8-2.8,4.4-3.9c3.9-2.5,8.7-2.5,13.2-2.7c5.2-0.3,24,0.6,27.5-6.1
							c-7.1-3.8-15.1-5.9-23.5-5.9h-47.8c-29.9,0-54.1,18.3-53.4,60l0,0.2C255.7,522,259.2,518.1,262.8,514.3z"/>
						<g>
							<path class="st13" d="M386.5,590.8c1.1-4.4,1.7-9.1,1.7-14v-41.9c0-28.9-21.2-52.3-47.3-52.3h-41.8
								c-26.1,0-47.3,23.4-47.3,52.3v41.9c0,4.8,0.6,9.5,1.7,14H386.5z"/>
							<path class="st32" d="M386.5,590.8c1.1-4.4,1.7-9.1,1.7-14v-41.9c0-28.9-21.2-52.3-47.3-52.3h-41.8
								c-26.1,0-47.3,23.4-47.3,52.3v41.9c0,4.8,0.6,9.5,1.7,14"/>
						</g>
						<path class="st12" d="M272.3,484.8c8.2-15.3,92.4-9.2,106,0.1c8.8,6,12.5,15.6,16.1,25.3c2,5.3,5.1,22.9,5.4,31.6"/>
						<g>
							<path class="st13" d="M363.9,579.7c0-0.7,0.1-1.5,0.1-2.2v-35.7c0-24.6-14.7-44.6-32.9-44.6h-29c-18.1,0-32.9,20-32.9,44.6
								v35.7c0,0.7,0,1.5,0.1,2.2H363.9z"/>
							<path class="st32" d="M357.4,571.2c0-0.2,0-0.5,0-0.7v-27.9c0-19.2-12.7-34.8-28.4-34.8H304c-15.7,0-28.4,15.6-28.4,34.8
								v27.9c0,0.2,0,0.5,0,0.7"/>
							<polygon class="st15" points="289.5,561.5 289.5,512.7 295.7,509.3 							"/>
							<path class="st15" d="M343,557.2c0-1.4-0.9-45.5-0.9-45.5l5.1,4.2L343,557.2z"/>
						</g>
						<path class="st34" d="M314.8,515.5c3,0,5.4-3.4,5.4-7.7h-10.9C309.4,512.1,311.8,515.5,314.8,515.5z"/>
						<path class="st9" d="M348,572.7c-7.4-2.7-16.6-2.7-22-9.3c-2.6-3.2-3.2-7.4-5.2-10.9c-2.5-4.1-6.4-6.3-11-7.4
							c-7.1-1.7-16.2-1.6-21.5-7.3c-3.8-4.1-5.3-9.4-4.1-14.9c2.3-10.6,11.2-21.4,21.6-25.7H302c-18.1,0-32.9,20-32.9,44.6v35.7
							c0,0.7,0,1.5,0.1,2.2h91.6C357,576.8,352.7,574.4,348,572.7z"/>
					</g>
					<g>
						<rect x="200.3" y="781.7" class="st15" width="262.1" height="11.8"/>
						<circle class="st15" cx="226.7" cy="797.2" r="15.5"/>
						<path class="st15" d="M448.3,797.2c0,8.6-7,15.5-15.5,15.5c-8.6,0-15.5-7-15.5-15.5c0-8.6,7-15.5,15.5-15.5
							C441.3,781.7,448.3,788.6,448.3,797.2z"/>
					</g>
					<line class="st35" x1="200.3" y1="787" x2="462.4" y2="787.4"/>
					<path class="st7" d="M452.4,706c-2.3,3.4-9.3,21.4,0.6,20.2c7.8-1,0.6-16.7,0-20.8"/>
					<path class="st7" d="M399.9,539.9c-1.7,2.5-6.7,15.5,0.4,14.6c5.7-0.7,0.5-12.1,0-15"/>
				</g>
				<g>
					<g>
						<path class="st20" d="M554.8,311.4c-8.2-7.7-19.1-11-27.3-18.6c-9.3,15.1-18.9,30.5-32.7,41.5c-18.4,14.6-36.7,19.8-59.3,22.5
							c-3.3,0.4-11.8,0.5-14.9-0.4c-16.4-4.6-21.2-19.3-24.3-15.9c-1.9,2.2,3.9,12.7,4.7,13.2c-3.4-2-7.9-6.3-14.6-10.2
							c-1-0.6-1.6,1.5-1.2,2.6c0.4,1.1,1.2,2,1.9,2.9c1.4,1.6,6.1,6.3,7.5,7.9c-8.8-6.6-13.6-7.6-13.1-6.2c0.3,0.8,0.7,1.5,2.1,2.9
							c1.9,1.8,4.6,4.7,6.6,6.4c-11.8-5-15.2-4.3-11.8-1c1.8,1.7,9.2,5.3,10.8,7.3c-4.7,0.6-10-4.9-10.8-1.3
							c-0.3,1.1,11.5,11.4,26.8,12.1c0,0,0,0,0,0c4.2,1.2,11.6,0.4,20.1,1c21.4,1.6,52.2,2.2,74.6-7.8
							c22.5-10.1,32.8-21.9,49.3-47.3C550.3,321.5,555.8,312.7,554.8,311.4"/>
						<g>
							<path class="st0" d="M429.4,357.1c9.2-0.7,88.9-14.3,94.6-81.3c1.5-17.2,22.7-67.7,47.3-58.8c20.2,7.4,12.7,53.1,3.6,76.7
								c-17.9,46.4-51,93.5-92,93.8c-9,0.1-30.1-1.4-52.5-4.2L429.4,357.1z"/>
							<g>
								<path class="st24" d="M509.8,343.3c-5.2-1.5-7.9-5.1-11-9.1"/>
								<path class="st24" d="M501,349c-2.1-2.9-3.2-7.7-3.4-11.4"/>
								<path class="st24" d="M490.9,351.5c0.6-3.3,1.1-8.5,1.8-10.4"/>
							</g>
						</g>
					</g>
					<g>
						<path class="st20" d="M606.3,444.9c-8.6-23.8-28-40.2-35.5-49.4c-7.5-9.3-17.6-4.5-17.6-4.5s-29.1,88.4-33.5,158.2
							c-4.4,69.8-4.2,67.6-7,138.1c-2.7,70.6-7.5,135.9-7.5,135.9s-0.4,1.9-1.2,2.7c-0.9,0.8-5.5,3.9-10.3,6.7
							c-4.8,2.7-11.5,4.2-11.3,5.6c0.1,1.4,0.4,2.5,2.5,4.3c2.1,1.9,5.9,1,13.1-1c7.2-2,24.2-8.2,26-11c1.8-2.8,8.4-41.3,16.4-73.7
							c9.3-38.1,11.8-59,16.2-81.5c4.4-22.5,9.2-64,9.2-64L609,477.4C609,477.4,614.9,468.7,606.3,444.9z"/>
						<path class="st15" d="M544.3,740.2l-33.7-4.5c0,0-6.8,80.9-8,83.6c-1,2.2-18,14.9-24.3,19.6c-0.9,0.6-1.7,1.1-2.3,1.7l0,0l0,0
							c-3.5,3-4.5,6.2-2.3,7.6c3.3,2.2,25,1.4,31.7-1.3c6.7-2.6,11.3-5.1,11.3-5.1l1.9,7l5.9-0.1L544.3,740.2z"/>
					</g>
					<g>
						<path class="st20" d="M669.1,450.2c-12.5-22-34.3-35-43.2-42.9c-8.9-7.9-18.1-1.6-18.1-1.6s-14.1,92-6.8,161.6
							c7.3,69.6,7,67.3,16,137.4c9,70,15.1,135.2,15.1,135.2s-0.1,1.9-0.8,2.8c-0.7,0.9-4.8,4.8-9,8.3c-4.3,3.5-10.6,6-10.3,7.4
							c0.4,1.3,0.8,2.4,3.2,3.9c2.4,1.5,6,0,12.8-3.1c6.8-3.1,22.5-12.1,23.8-15.2c1.3-3,1.5-42.1,3.9-75.4
							c2.9-39.1,1.8-60.2,2.5-83.1c0.6-22.9-1.5-64.7-1.5-64.7l20.4-139C677.1,481.8,681.6,472.2,669.1,450.2z"/>
						<path class="st15" d="M656.8,751.7l-34,1.1c0,0,6.7,80.9,6,83.7c-0.6,2.3-15.3,17.7-20.8,23.3c-0.8,0.7-1.4,1.4-2,2.1l0,0l0,0
							c-2.9,3.5-3.4,6.8-1.1,7.9c3.6,1.6,24.9-2.8,31-6.5c6.1-3.7,10.3-6.9,10.3-6.9l3,6.6l5.8-1.1L656.8,751.7z"/>
					</g>
					<g>
						<g>
							<path class="st34" d="M704.8,467.1c-10.9-64.7-59.4-115.5-59.4-115.5h0c-0.3-12,0.4-23.8,4.4-35.4
								c7.6-21.6,18.1-41.1,13.7-64.8c-1.9-10.1-0.4-29.5-14.5-34c-29.9-9.5-47.5-10.2-58.6-9.3c-12.2,1-21.9,3.6-32.9,6.7
								c-22.8,6.4-34.6,55.8-31.7,72c2.3,12.9,9.9,17.8,13.2,28.3c4.7,15,7.4,34.5,7.4,50.5c-30.9,72.9-43.6,134.4-48.8,175.2
								c-1.4,11.2-9.4,81.8-8.2,92.7l226,6.7C716.9,629.5,715.5,530.3,704.8,467.1z"/>
							<g>
								<g>
									<defs>
										<path id="SVGID_1_" d="M704.8,467.1c-10.9-64.7-59.4-115.5-59.4-115.5h0c-0.3-12,0.4-23.8,4.4-35.4
											c7.6-21.6,18.1-41.1,13.7-64.8c-1.9-10.1-0.4-29.5-14.5-34c-29.9-9.5-47.5-10.2-58.6-9.3c-12.2,1-21.9,3.6-32.9,6.7
											c-22.8,6.4-34.6,55.8-31.7,72c2.3,12.9,9.9,17.8,13.2,28.3c4.7,15,7.4,34.5,7.4,50.5c-30.9,72.9-43.6,134.4-48.8,175.2
											c-1.4,11.2-9.4,81.8-8.2,92.7l226,6.7C716.9,629.5,715.5,530.3,704.8,467.1z"/>
									</defs>
									<clipPath id="SVGID_2_">
										<use xlink:href="#SVGID_1_"  style="overflow:visible;"/>
									</clipPath>
									<g class="st36">
										<path class="st3" d="M496,428.3c-70.3,74.7,71.4,119.4,70.2,193c-0.3,21-12.2,39.7-0.7,58.2C577,698,597.2,701,614.4,692
											c32.8-17.2,52.4-71,49.6-105.8c-3.6-45.1-54.7-77.7-92.9-90.3c-37.3-12.4-55.4-31.8-72.6-67.6"/>
										<path class="st3" d="M648.9,192.6c1.4,16.6-80.5,66.5-40.2,77.8c30,8.4,59.3-61.4,45.2-78c-8.5,6.3-2.3,4.8-2.5,2.7"/>
										<path class="st3" d="M669,360.6c-25.8,14.3-59.3,32.3-52.8,67.7c3.1,16.9,43,59.3,59.7,35.2c15.9-23-42.2-34.1-15.1-66
											c8.3-9.8,24.6-9.2,25.8-24.4c1.1-13.5-12.6-23.1-22.7-17.5"/>
										<path class="st3" d="M744.2,651.3c-32.5,17.8-48.8-52.1-47.7-72.7c0.5-9.2,6.6-18.3,7.7-27.6c1.2-9.7-3.8-21.6-2.7-30.1
											c2.3-17.9,17.8-44.2,35.2-52c30-13.4,35.8,16.2,30.3,41.5c-5.4,25-31.2,41.1-30.2,68.2c0.9,22.2,22.2,29,28.2,47
											c5.4,16.3-6.7,29.7-23.2,25.7"/>
										<path class="st3" d="M525.3,339.7c11.1-28.7,47.7-13.3,54.8,11.2c6.2,21.5-12.5,61.5-31.4,73.6
											c-23,14.7-38-10.7-28.1-29.6c6.8-13,13.5-17.7,13-33.5c-0.2-7.2-3.2-22.8-6.7-20.1"/>
									</g>
								</g>
							</g>
						</g>
						<path class="st24" d="M523.2,566.9c25.2-5.2,47.9-40.6,59.1-60.1"/>
						<path class="st24" d="M533.3,590.6c11.1-2.4,45.7-14.1,62.6-51.4"/>
						<path class="st37" d="M704.8,467.8c-10.1-60.1-52.6-108.1-58.7-114.7c-0.1,0.3-0.3,0.5-0.5,0.8c-0.4-12.8,0.1-25.3,4.4-37.6
							c7.7-21.7,18.4-41.3,13.8-65.1c-1.9-10.2-0.4-29.7-14.7-34.1c-0.7-0.2-1.5-0.4-2.2-0.7c-4.5,3.7-8.6,7.6-10.5,13.5
							c-2.3,7.3-2.9,15-2.4,22.6c0.9,14.3,4.6,28.2,6.4,42.3c1.7,13.3,2.5,27.2-0.8,40.3c-3,11.8-12.3,22.7-20.2,31.7
							c4.1-0.6,78.5,93.7,78.5,182.2c0,24.4-3.7,66.9-68.6,89.4l86,2.6C716.9,630.1,715.5,530.9,704.8,467.8z"/>
					</g>
					<g>
						<g>
							<g>
								<path class="st3" d="M588,111.7c2.3-4.7-0.7-9.3,2.7-14.4c3.4-5.2,9.1-6.7,15.1-6.2c2.8,0.3,6.1,0.9,9,0.4
									c3.3-0.6,6.1-2.8,9.2-3.8c7.1-2.2,15.3,1.1,19,7.9c3.2,5.9,0.1,11.2,5.8,15.9c4.2,3.5,9.6,3.2,13.9,6.2
									c5.7,4,7.6,11.3,7.5,17.9c-0.2,15.3-14,30.7-8.4,46.1c2.1,5.7,6.1,9.5,10.7,13.2c2.1,1.7,6.2,3.8,7,6.5
									c-8.7,4.5-18,10.8-28.5,8.4c-8.8-2-18.9-7.2-24.5-14.4c-6-7.6-4.4-15.8-2.2-24.5c0.9-3.4,1.4-7.1,0-10.4
									c-1.4-3.2-4-3.9-6.6-5.9c-4.7-3.6-6.4-7.8-8-13.4c-1.7-5.6-1.9-13.4-4.5-18.4c-1.9-3.7-7.2-4.3-10.8-5.5
									c-4-1.4-4.6-3.4-6.4-5.8"/>
								<path class="st38" d="M602.9,109.3c7.2-6.3,22.1-3.3,24.8,0.5c6.6,9.3,4.7,10.5,9.7,18.6c3,4.9,2.3,11.3-0.5,16.8
									c-2.4,4.7-5.6,6.9-9.9,9.1c-2.9,1.5-11.1,5.3-12.5,2.8c-0.6-1-1.8-3.2-2.2-4.2c-0.5-1.3-0.5-2.8-0.8-4.4
									c-1.4-7.7-3.3-15-4-22.7c-0.6-5.6-1.5-9.2-6.2-11.9C599,112.6,602.9,109.3,602.9,109.3z"/>
							</g>
							<path class="st20" d="M618.4,211.6c-11.6,13.9-32.6,13.9-45.7,1.4c0.1-0.3,0.1-3.1,0.2-3.4c4.5-17.3,5.5-35.5,2.9-53.1
								c11.2,3,22.8,2,34.1,3.7c0.5,0.1,1,0.2,1.5,0.5c0.8,0.7,2.9,1.3,2.8,2.4c-1.3,16.1-1.4,31.1,3.9,47.9
								C618.2,211.3,618.3,211.4,618.4,211.6z"/>
							<path class="st21" d="M575.4,175.4c1.2,4.6,3.5,9.5,7.6,12.1c5.8,3.8,11.8,1,16.7-2.8c3.9-3,11.1-14.3,11.8-18
								c-0.9,2.1-29.6,12.1-37.3,8.1"/>
							<path class="st20" d="M616.4,145.4c-4.4,3.3-6.1,8.3-7.1,13.1c-0.2,1.1-0.4,2.3-0.1,3.4s1.2,2.2,2.6,2.6
								c1.3,0.3,2.7,0,3.8-0.6c1.1-0.6,1.8-1.5,2.5-2.4c2-2.8,3.2-5.9,4.3-9c0.5-1.3,0.9-2.6,0.9-3.9c0-1.3-0.7-2.7-2-3.6
								c-1.3-0.8-3.5-1-4.7,0C615.6,145.6,615.4,146.6,616.4,145.4"/>
							<path class="st20" d="M588.3,110.7c-7.3-1.6-14.8,3.5-18.7,10.5c-3.9,7.1-4.8,15.8-4.5,24.1c0.3,8.6,1.8,17.3,5.4,24.9
								c2.6,5.5,4.1,14.8,12.6,15.1c9.5,0.3,14.2-2,22-9.4c4.1-3.9,6.1-7.7,7.3-13.5c2.1-10.2,3.7-20.9,1.5-31.1
								c-2.1-10.2-8.9-19.7-18.1-21.5C591.7,109.1,587.5,109.9,588.3,110.7"/>
							<g>
								<path class="st0" d="M595.3,161.9c-2.2,3.5-4.9,7.4-8.6,7.8c-2.2,0.2-4.2-0.8-5.8-2.4c-1.6-1.6-2.7-3.6-3.9-5.6
									C582.9,163.1,589.2,163.2,595.3,161.9"/>
								<path class="st22" d="M589.3,155.1c-0.6,1.2-2.3,2.3-6.8,0.9c-0.9-0.3-2-0.8-2-1.7c0-0.4,0.2-0.7,0.5-1
									c4.4-4.9,3.8-8.1,3.3-12.5"/>
								<path class="st24" d="M579,138.8c-3.3-2.4-7.1-2.5-9.4-0.7"/>
								<path class="st24" d="M602,137.6c-2.6-1.2-8.3,0.1-10.8,1.6"/>
								<path class="st15" d="M576.9,144.6c0-1.4-0.8-2.5-1.7-2.4c-0.9,0-1.6,1.2-1.5,2.6c0,1.4,0.8,2.5,1.7,2.4
									C576.3,147.2,577,146,576.9,144.6"/>
								<path class="st15" d="M597.4,144.2c0-1.4-0.8-2.5-1.7-2.5c-0.9,0-1.6,1.2-1.5,2.6c0,1.4,0.8,2.5,1.7,2.5
									C596.7,146.8,597.4,145.6,597.4,144.2"/>
							</g>
							<path class="st3" d="M603.4,105.8c-3.5,1.1-2.9,7.6-2.5,11.9c0.3,3.1,3.9,5.4,5.9,7.6c1.8,1.9,4.3,4.5,5.1,7
								c1.3,3.8-1.1,6.6-1.7,10.2c-0.4,2.6-0.6,8.7,2.9,9.5c3.4,0.7,3.2-5,4.9-5.1c1.4,0,4,6,7.1,3.5c3.5-2.7,5.4-19,6.5-23.8
								c1.5-6.6-2.8-13.5-8.5-16.4C623.2,110.1,607.3,104.6,603.4,105.8z"/>
							<path class="st3" d="M605.5,107.5c-0.7,5.2-2.2,15-8.3,18.3c-5.4,2.9-14-4.7-18.7-3.5c-15.1,3.8-12.6,18.3-12.9,30
								c-3.3-0.2-4-3.2-4.6-6c-1-4.7-2.3-6-0.1-9.7c4.5-7.5,0.9-15.5,6.2-22.4c4.2-5.3,11.6-8.3,18.2-8.4c3.9-0.1,13.1-1.6,19.3,0.3
								L605.5,107.5z"/>
							<g>
								<path class="st0" d="M565.4,151.5c-0.7,15.8,2.7,34.3,20.4,34.6c13.9,0.3,25.1-12,28.3-28.8c0.6-3.2-21.5-6.3-29.7-5.7
									C579.8,152,565.4,151.5,565.4,151.5z"/>
								<g>
									<path class="st23" d="M570.4,159.3c-0.2,0.5-0.3,2.7,0.4,2.9c0.4,0.1,2.2-1.9,2.6-2.2c2.1-1.5,4.5-2,6.7-3
										c-2.1,0.3-4.1-0.2-6.2,0.5c-1.2,0.4-2.8,1.7-3.7,1.9"/>
									<path class="st23" d="M582.1,162.9c-1.9,0.7-12.1,1.3-9.8,5.3c2.9-1.4,5.9-3.4,8.8-4.8"/>
									<path class="st23" d="M583.8,167.5c-2.5,2.1-5.2,3.9-7.7,6.1c-1.1,1-1.1,0.5-0.6,1.6c0.5,0.9,1.3,1.6,2,1.2
										c0.3-0.2,1-1.7,1.3-2.1c0.7-0.9,1.2-1.9,1.8-2.9c0.7-1.1,1.9-2.4,2.5-3.3"/>
									<path class="st23" d="M600.4,159.1c0.2,0.5,0.5,2.6-0.2,2.9c-0.4,0.2-2.4-1.6-2.8-1.9c-2.3-1.3-4.7-1.4-6.9-2.2
										c2.1,0.1,4.1-0.7,6.2-0.2c1.2,0.3,2.9,1.4,3.9,1.5"/>
									<path class="st23" d="M589,164.1c1.9,0.5,12.1-0.1,10.2,4.1c-3-1.1-6.1-2.7-9.2-3.7"/>
									<path class="st23" d="M587.8,168.8c2.7,1.8,5.5,3.3,8.2,5.2c1.2,0.9,1.2,0.4,0.7,1.6c-0.4,1-1.2,1.7-1.8,1.4
										c-0.3-0.2-1.1-1.6-1.4-1.9c-0.8-0.8-1.4-1.8-2.1-2.6c-0.8-1-2.1-2.2-2.7-3"/>
								</g>
							</g>
							<path class="st39" d="M629.9,157.4c2.2-0.8,4.8,0,5.8,2.3c1.1,2.7-1.1,4.9-2.4,7c-2.2,3.8-6.4,9.9-2.1,14.1
								c3.8,3.7,10.2-1.3,11.8,6c0.9,4.2-3.4,12.8,5,11.9"/>
							<path class="st39" d="M566.7,124.8c2.2-2.6,1.8-8.3,6.2-9c4.4-0.7,6.2,4.7,9.6-0.9"/>
							<path class="st39" d="M601.8,115.3c1.9-3.3,7.8-3,10.4-0.7c3.4,3,1.1,6.6,1.8,10.4c0.8,4.1,4.1,3.9,6.1,6.8
								c1.9,2.8-1.1,7.3,2.5,8.6"/>
							<path class="st39" d="M620.2,116c-0.1,3.5-0.2,5.1,2.2,7.7c1.6,1.8,4.8,2.3,2.7,5.4"/>
							<path class="st39" d="M663.6,204.2c6.4,1-1.7-11.6-4.5-13.2c-2.2-1.3-5.5-1.5-7.1-3.8c-2.4-3.5,1.3-6,0.1-9.3
								c-2.2-6.3-12.4-2.9-8.9-12.5c1-2.6,3.5-5.1,3.3-8.2c-0.2-4.1-3.9-6.1-6.3-9"/>
							<path class="st39" d="M642.8,126.5c7-8.1,16,4.6,14.6,11.9c-1.4,7.2-7.6,12.5,0.5,18.8"/>
							<path class="st39" d="M614.1,100.3c2.3-3.9,6.8-5.2,9.6-0.9c1.3,2.1,3.4,10.4,7.4,4.5"/>
						</g>
						<g>
							<path class="st13" d="M590,251.3c-0.7,16.2,0.9,32.3-0.6,48.6c-2.8,30.5-2.5,61.2-3.5,91.7c-1.7,53.7,13.5,135.6,56.1,173.3
								c1.6-12.2,13.7-9.2,22.9-10c10.1-0.9,24.3-6,30.5-14.8c-93.1-52.8-92.6-195.7-89-288.4c0.5-13.4,1.9-26.9,2.6-39.9
								c-6.8,0.9-13.3,0.1-20.2,1.3C588.7,213.2,590.4,239.5,590,251.3z"/>
							<polygon class="st40" points="585.8,402.4 612.2,398.6 609.8,382.8 587.7,352.8 							"/>
							<path class="st13" d="M579.7,208c-5,15.7-14.5,30.1-19.2,46.2c-5.4,18.3-9.7,37.1-10.5,56.2c-1.1,26.9,17.5,49.2,18.9,74.2
								c0.3,5.8-2.5,15-1.8,20.4c18.6-13.4,34.7-0.1,48.8-16.1c-12.2-3-22.9-29.7-26.6-40.2c-7.3-20.6-12.1-44.3-11.2-66.1
								c0.7-17.4,3.4-33.8,6.8-50.5c1.2-6,1.5-12,2.8-17.9c1.3-5.4,3-8.4-4.2-9.1c-1.2-0.1-3.7,0.5-3.8,0.5L579.7,208z"/>
							<path class="st13" d="M573.5,191c-4.3-1.1-5.7,18.8-6.2,22.8c-1,6.9,6.1,10,11.1,13.9c5.1,4,13,5.2,19.2,4.5
								c2.8-0.3,6.1-0.9,8.7-2.4c3.1-1.8,5-4.4,8.7-5.3c6.9-1.8,13.2-2.2,11.3-11.3c-1.4-6.5-2.9-14.2-5.8-20.3
								c-2-4.3-2.8-3.5-6.4-1.6c-2.9,1.6-5.5,2.9-8.8,3.6c-6.9,1.4-13.8,0.9-20.8,0.3c-5.2-0.4-6.5-2.5-10.8-4.5"/>
						</g>
					</g>
					<g>
						<path class="st20" d="M685.2,306.2c-11.1-1.8-21.9,1.4-33.1-0.4c0.6,17.7,1.1,35.9-4.3,52.7c-7.2,22.3-19.6,36.8-36.9,51.6
							c-2.5,2.1-9.6,6.9-12.6,7.9c-16.1,5.3-28.4-4.3-29,0.2c-0.4,2.9,4.9,6.1,9.6,8.3c-3.9,0.4-8.4-0.7-16.1-0.3
							c-1.2,0.1-0.5,2.2,0.4,2.9c0.9,0.7,2.1,1,3.2,1.4c2.1,0.6,4.1,1.1,6.2,1.7c-11-0.6-11.1,2-9.9,2.8c0.7,0.5,1.4,0.9,3.3,1.2
							c2.6,0.5,5.1,0.9,7.7,1.1c-12.6,2.4-10.2,4.3-5.5,5.1c2.4,0.4,5-0.5,7.4,0.2c-3.5,3.1-6.4,1-5.1,4.4
							c0.4,1.1,13.7,1.1,26.4-3.4c0,0,0,0,0,0c14.5-4.7,56.8-29.1,75.1-58c13.2-20.9,15.2-36.4,14.8-66.7
							C687,317.1,686.7,306.7,685.2,306.2"/>
						<g>
							<path class="st0" d="M606.1,413.7c7.3-5.7,66.1-61.1,33.8-120.1c-8.3-15.1-18.6-69,6.9-75.1c20.9-5,39.9,37.2,45.5,61.9
								c10.8,48.5,9.3,106.1-24.7,129.1c-7.4,5-25.9,15.5-46.1,25.6L606.1,413.7z"/>
							<g>
								<path class="st24" d="M665.4,357.6c-5.1,1.7-9.5,0.1-14.2-1.5"/>
								<path class="st24" d="M661.2,367.3c-3.3-1.3-7-4.6-9.2-7.6"/>
								<path class="st24" d="M654.1,374.9c-1.4-3-3.8-7.7-4.2-9.7"/>
							</g>
						</g>
					</g>
					<polygon class="st28" points="589.8,229.5 589.9,241.2 606.9,238 608.3,225.2 					"/>
				</g>
			</g>
			<g>
				<g>
					<g>
						<path class="st41" d="M1055.8,526.1c-2.4,1.6-4.5,3.5-6,6.3c-4.1,7-2.8,16-5.6,23.7c-2.9,8.2-10.1,13.9-17.5,17.8
							c-7.5,3.9-15.5,6.3-22.8,10.6c-12.9,7.5-22.7,20.2-28.8,34.3c-6.1,14.1-8.9,29.6-10.2,45c1.2-12-2.3-23.7-4.7-35
							c-2.3-11.2-3-24.4,4.4-32.9c1.9-2.2,4.3-3.9,6-6.3c5.9-8,2.4-19.4,1.2-29.4c-1.8-14.7,3.9-32.3,17.5-36.4
							c6.9-2.1,14.9-0.5,21-4.5c8.3-5.5,8.4-18,12.5-27.3c1-2.2,2.2-4.3,3.6-6.3c4.9,3.2,9.4,6.9,13.5,11.1"/>
						<path class="st15" d="M1000.9,645.4c-21.7,41.8-32.2,89.9-29.7,137.5c-2.8,0.2-5.5,0.4-8.3,0.6c-4.4-47.3,7.1-96.1,31.9-135.9
							c0.7-1.2,1.6-2.4,3-2.6C999.1,644.8,1000.4,646.7,1000.9,645.4"/>
						<path class="st15" d="M967.2,778l0.7-109.9c0.1-16.3,0.1-33.3-6.9-47.9c-1.1,54.8-2.3,109.7-3.4,164.5
							C961.2,783.8,967.1,784,967.2,778"/>
						<path class="st15" d="M961.1,779.6c2.3-52.7-4.8-105.8-20.6-155.9c-2.4,1.2-4.8,2.3-7.2,3.5c11.1,51.9,22.2,104.4,20.6,157.5
							C956.1,783,959,782.5,961.1,779.6"/>
						<path class="st15" d="M932.9,645.9c15.7,40.4,26.1,83,30.8,126.3c0.5,4.3,1.6,9.6,5.6,10.8c-5.2,1.2-10.7,1-15.8-0.5
							c0.5-45.9-9.2-91.9-28.2-133.4C927.1,645.7,931.7,642.9,932.9,645.9"/>
						<g>
							<path class="st7" d="M1170.9,618.6c1.6,5.1,2.7,10.7,1.6,16c-1,5.3-4.6,10.3-9.6,11.6c-3.7,1-7.7-0.2-11-2
								c-6.9-3.8-12-10.3-16.8-16.6c-4.8-6.4-9.8-12.9-16.6-16.9c-6.8-4-15.9-4.8-21.9,0.3c-2.9,2.4-4.8,5.9-7.1,9
								c-5.6,7.7-14.5,13.5-23.7,12.3c-6.2-0.8-11.6-4.5-17.5-6.5c-5.9-1.9-13.7-1.3-16.8,4.3c-3.5,6.3,0.6,16-4.6,20.9
								c-4.9,4.7-12.5,0.4-19.1,0.4c-9.7,0-16.6,9.3-22,17.8c4.7-13.2,7.9-27.1,9.6-41.1c0.7-5.9,1.2-12,3.6-17.3
								c3.4-7.7,10.9-13.2,19-14c5.8-0.6,12,1,17.4-1.3c9.2-4.1,10.8-16.9,17.5-24.7c6-7,16.6-9.2,24.7-5.1c4.6,2.3,8,8.4,13.1,8.2
								C1152.4,571.1,1165.2,600.4,1170.9,618.6"/>
							<path class="st15" d="M995.5,628c0.7-5.9,1.2-12,3.6-17.3c3.4-7.7,10.9-13.2,19-14c5.8-0.6,12,1,17.4-1.3
								c9.2-4.1,10.8-16.9,17.5-24.7c3.6-4.2,8.9-6.7,14.3-7.1c-0.7,1.2-1.4,2.4-2.1,3.6c-1.3,2.2-2.1,4.3-2.8,6.7
								c-0.7,2.4-1.5,4.7-2.3,7.1c-1.6,4.7-3.7,9.4-6.6,13.4c-2.8,3.8-6.1,7.1-10.4,9.2c-4.2,2-8.9,2.8-13.5,2.9
								c-1.1,0-2.7-0.2-3.7,0.4c-0.7,0.4-1.3,1-1.7,1.7c-1.1,1.6-1.6,3.7-1.6,5.6c0,2.3,0.7,4.6,1.3,6.8c0.6,2.3,1.3,4.5,2.2,6.7
								c1.2,2.9,2.6,5.6,4.1,8.2c-0.4,5.5,0.6,11.5-3.1,15.1c-4.9,4.7-12.5,0.4-19.1,0.4c-9.7,0-16.6,9.3-22,17.8
								C990.6,655.8,993.8,642,995.5,628"/>
							<path class="st15" d="M1149.2,607c-22.8-8.8-49.9-11.2-74.8-6.5c-24.9,4.7-47.3,16.5-61.9,32.4c-1.5-2,0.6-4.3,2.6-6
								c16.9-14.3,38.1-26.3,62.7-31C1102.3,591.3,1130.4,594.9,1149.2,607"/>
						</g>
						<g>
							<path class="st13" d="M964.8,663.6c1.3-15.4,4.1-30.9,10.2-45c6.1-14.1,15.9-26.8,28.8-34.3c7.3-4.2,15.4-6.7,22.8-10.6
								c7.5-3.9,14.6-9.6,17.5-17.8c2.8-7.7,1.5-16.7,5.6-23.7c8-13.8,28.8-9.4,41.5-18.6c4.5-3.2,7.7-8.2,9.6-13.5
								c3.3-9.6,1.9-20.9-3.5-29.4c-5.5-8.5-15-14-24.7-14.3c-14.3-0.5-27,9.1-37.5,19.3c-4.8,4.7-9.5,9.7-12.2,15.9
								c-4.1,9.4-4.2,21.8-12.5,27.3c-6.1,4-14.1,2.4-21,4.5c-13.6,4.2-19.3,21.8-17.5,36.4c1.2,10,4.7,21.4-1.2,29.4
								c-1.7,2.3-4.1,4.1-6,6.3c-7.4,8.5-6.7,21.6-4.4,32.9C962.5,639.9,966,651.6,964.8,663.6"/>
							<path class="st15" d="M964.6,595.8c1.9-2.2,4.3-3.9,6-6.3c5.9-8,2.4-19.4,1.2-29.4c-1.8-14.7,3.9-32.3,17.5-36.4
								c6.9-2.1,14.9-0.5,21-4.5c8.3-5.5,8.4-18,12.5-27.3c0.5-1.2,1.1-2.3,1.7-3.4c-1,4.2-1.6,8.4-1.7,12.7
								c-0.1,2.6-0.1,5.2,0.3,7.7c0.6,3,1.1,6,1.4,9.1c0.3,3.2,0.4,6.4,0.2,9.6c-0.1,1.7-0.1,3.6-0.8,5.1c-0.5,1.2-1.1,2.4-1.8,3.5
								c-2.9,5-6.6,9.4-9.8,14.2c-2.3,3.5-4.2,7-4.8,11.2c-0.6,3.8-0.2,8,1.9,11.4c1,1.6,2.4,2.9,4,3.9c1.1,0.7,2.5,1,3.8,1.2
								c-4.6,1.9-9.2,3.8-13.5,6.3c-12.9,7.5-22.7,20.2-28.8,34.3c-6.1,14.1-8.9,29.6-10.2,45c1.2-12-2.3-23.7-4.6-35
								C957.8,617.4,957.2,604.3,964.6,595.8"/>
							<path class="st15" d="M1087.9,483c-11.4,0.7-20.3,9.9-27,19.3c-9.6,13.4-17.2,28.2-26.6,41.7c-9.4,13.5-21.2,26.1-36.3,32.5
								c-0.6-1.3-1.1-2.6-1.7-3.9c13.9-9.8,26-22.2,35.5-36.4c7.5-11.2,13.4-23.6,22-34C1062.4,491.8,1074.7,483.3,1087.9,483"/>
						</g>
						<g>
							<path class="st13" d="M944.5,674.7c-1.1-12.3,8.7-22.6,11.4-34.6c2.7-12.4-3.2-26.3-13.9-32.4c-12.2-6.9-29.5-4.7-37.9-16.3
								c-5.8-8-6.2-21.4-15.3-24.4c-6-1.9-12.8,2.1-18.5-0.4c-3.9-1.7-6.1-6.1-9.4-8.9c-5.4-4.8-13.1-5.2-20.1-4
								c-7,1.2-13.7,3.9-20.7,4.6c-12.8,1.3-25.5-4.1-38.3-3.8c-9.6,0.3-20.9,6.3-20.9,16.4c0,3.4,1.4,6.6,3.1,9.5
								c11.5,19.9,36.8,26.1,58.9,23.6c14-1.6,29.4-5.7,41.4,2c4.2,2.7,7.9,7.7,6.7,12.8c-0.8,3.7-4,6.3-5.9,9.5
								c-5.6,9.3,0.2,22.3,9.3,27.6c9.1,5.3,20.2,4.8,30.6,3.7c6.9-0.8,14-1.7,20.5,0.5C933.9,663,939.8,670.7,944.5,674.7"/>
							<path class="st15" d="M868.9,623.1c3,0.9,6,2.2,8.7,4c1.9,1.2,3.7,2.5,5.5,3.9c2.1,1.7,3.7,3.9,5.7,5.7
								c2.5,2.2,5.5,3.9,8.8,4.8c2.4,1,5,1.5,7.7,1.4c5-0.2,9.7-1.9,14.2-3.7c2.1-0.8,4.3-2,6.4-2.6c0.9-0.3,1.8-0.5,2.6-1.2
								c0.9-0.7,1.4-2.1,1.8-3.1c0.8-1.7,1.1-3.5,1.1-5.4c0-0.1,0-0.2,0-0.3c0.1-1-0.1-1.9-0.4-2.8c-0.3-1.9-0.9-3.8-1.5-5.5
								c-1.7-4.9-4-9.5-6.3-14.2c-0.4-0.9-0.9-1.8-1.3-2.8c6.8,1.7,14,2.9,19.9,6.3c10.7,6.1,16.6,20,13.9,32.4
								c-2.7,12-12.4,22.4-11.4,34.6c-4.8-4-10.7-11.7-19-14.6c-6.5-2.3-13.6-1.3-20.5-0.5c-10.4,1.2-21.5,1.6-30.6-3.7
								c-9.1-5.3-14.9-18.3-9.3-27.6C866.2,626.5,867.7,624.9,868.9,623.1"/>
							<path class="st15" d="M775.7,569.4c34.4,5.6,71,6.6,100.5,25.2c24.3,15.4,40.6,41.2,64.3,57.6c-1.2,1.2-2.3,2.5-3.5,3.7
								c-11.2-11.4-23.2-22-35.1-32.6c-13.8-12.3-28-24.8-44.8-32.5C830.4,578.7,799.5,579.7,775.7,569.4"/>
						</g>
						<g>
							<path class="st7" d="M951.4,667c-1.1-15,12.3-26.9,15.7-41.5c2.4-10.4-0.5-21.2-3.8-31.3c-2.5-7.7-5.4-15.5-10.7-21.4
								c-11.5-12.8-31.7-13.9-42.6-27.3c-4-4.9-6.4-11.1-9.8-16.6c-8-12.7-22.2-20.9-36.8-21.2c-10.1-0.2-20.1,3.1-29.4,7.4
								c-4.2,1.9-8.4,4.1-11.4,7.7c-3,3.6-4.6,8.9-2.7,13.2c1.9,4.4,6.8,6.7,11.4,6.6c4.6-0.1,9-2,13.3-4c2.2-1,4.5-2.2,6.8-2
								c2.4,0.2,4.8,2.2,4.6,4.7c-0.2,2.7-3,4.1-4.6,6.2c-2.6,3.4-2,8.6,0.4,12c2.4,3.5,6.3,5.5,10.1,7.1c8,3.2,16.7,4.8,23.9,9.6
								c7.2,4.8,12.7,14.3,9.4,22.7c-1.2,3.2-3.6,5.8-4.5,9.1c-2,6.7,2.4,13.6,7.4,18.3c6.9,6.5,15.4,11.1,24.5,13.3
								c3.6,0.9,7.5,1.5,10,4.3c1.3,1.5,2,3.4,2.8,5.2C938.6,656.5,944.2,662.5,951.4,667"/>
							<path class="st15" d="M852.8,556.3c7.7-0.9,16.3-0.6,23.7,1.9c12,4,22.7,12.6,28.6,23.9c3.3,6.3,4.9,13.4,7.1,20.2
								c1.1,3.4,2.4,6.9,4.3,9.9c1.7,2.7,4,5.2,6.6,7.2c5.1,4,11.2,6.5,17.7,6.4c6.5-0.2,12.8-2.8,17.7-7c2.4-2,4.6-4.5,6-7.4
								c0.9-1.8,1.5-3.8,1.9-5.8c1.5,6.7,2.1,13.5,0.6,20.1c-3.4,14.6-16.8,26.5-15.7,41.5c-7.1-4.5-12.8-10.5-16.1-17.7
								c-0.8-1.8-1.5-3.7-2.8-5.2c-2.5-2.8-6.4-3.5-10-4.3c-9.1-2.2-17.6-6.8-24.5-13.3c-5-4.7-9.4-11.5-7.4-18.3
								c1-3.3,3.3-5.9,4.5-9.1c3.2-8.4-2.2-17.9-9.4-22.7c-7.2-4.8-15.9-6.4-23.9-9.6c-3.8-1.5-7.7-3.6-10.1-7.1
								c-0.6-0.9-1.1-1.9-1.5-3C851.1,556.5,851.9,556.4,852.8,556.3"/>
							<path class="st15" d="M851.1,520.5c53.3,17.9,93.6,69.5,98.5,125.8c0.2,2.5-0.6,6-3.1,5.8C937.1,597,901.2,547.2,851.1,520.5
								"/>
						</g>
						<path class="st13" d="M957,744.4c-0.1-15.4,0.9-23.1-6.2-33.2c-7.1-10.1-21.3-17.9-36.1-17.3c-12.8,0.5-23.7,6.8-33.1,13.4
							c-8.7,6-17.4,13-19.9,21.8c-2.6,8.9,3.4,20,15.1,22.2c6.2,1.2,13-0.5,17.1-4.1c4-3.6,5.1-9.1,2.6-13.6
							c4.9,2.4,11.4,2.9,16.7,1.3c5.3-1.7,9.3-5.4,10.3-9.8c0.4-1.7,0.4-3.4,1.5-4.9c2.1-2.6,7.1-2.9,10.9-1.7
							c11.1,3.2,14.8,13.8,15.4,22.7c0.2,2.5-0.3,24.1-0.3,24.1l5.5,0C956.5,765.3,957,750.1,957,744.4"/>
						<path class="st34" d="M968.8,740.3c0.1-11.2-0.7-16.7,4.5-24c5.1-7.3,15.4-13,26.1-12.5c9.3,0.3,17.1,4.9,23.9,9.7
							c6.3,4.4,12.6,9.4,14.4,15.8c1.9,6.4-2.4,14.4-10.9,16c-4.5,0.8-9.4-0.3-12.3-3c-2.9-2.6-3.7-6.6-1.9-9.8
							c-3.6,1.8-8.2,2.1-12,0.9c-3.8-1.2-6.7-3.9-7.4-7.1c-0.3-1.2-0.3-2.5-1.1-3.5c-1.5-1.9-5.1-2.1-7.9-1.3
							c-8,2.3-10.7,10-11.1,16.5c-0.1,1.8,0.2,17.4,0.2,17.4l-4,0C969.1,755.5,968.8,744.4,968.8,740.3"/>
						<g>
							<path class="st13" d="M968.3,632.4c12.3-9.6,22.4-22.5,27.5-37.6c5.1-15.1,4.8-32.5-2.2-46.7c-2.9-5.8-6.8-11.1-8.3-17.4
								c-1.2-5-0.7-10.3-1.2-15.5c-1.6-15.4-13.2-29-27.5-32.4c-3.6-0.9-7.6-1.2-10.4-3.8c-2.8-2.5-3.7-6.6-5.1-10.1
								c-3.7-9.3-12-16.4-21.5-18.2c-3.3-0.7-6.7-0.7-9.9-1.8c-2.7-0.9-5.1-2.5-7.5-3.9c-9-5.2-20.6-8.5-29.3-2.7
								c-3.6,2.5-6.3,6.3-8.2,10.4c-7.1,15.4-3.1,35.5,9.3,46.7c6.8,6.2,15.8,9.8,21.6,17c7.2,9.1,8.2,22.2,15.2,31.5
								c7.6,10.2,20.7,14,30,22.4c9.1,8.2,14.1,21.1,13.3,33.6c-0.3,4.4-1.3,9-0.5,13.3c1.3,6.9,6.9,12,12.1,16.5
								c0.6,0.5,1.4,1,2.1,0.6C968.5,634,967.6,632.9,968.3,632.4"/>
							<path class="st15" d="M892.6,509.9c8.2-0.5,16.6,0.5,24.4,3.2c15.4,5.3,27.6,17.1,34.4,31.8c3.5,7.7,5.2,15.8,7.5,23.9
								c1.1,4,2.1,8.1,3.3,12.1c1.1,3.4,2.5,7.6,5.1,10.1c2.5,2.4,5.6,3.5,8.9,2.7c3.8-0.9,6.7-4.1,8.9-7.1
								c5.5-7.5,9.1-16,12.7-24.5c0.1-0.1,0.1-0.3,0.1-0.4c2.2,10.9,1.3,22.6-2.3,33.2c-5.1,15.1-15.2,28-27.5,37.6
								c-0.7,0.6,0.2,1.6-0.5,2c-0.6,0.4-1.5-0.1-2.1-0.6c-5.2-4.5-10.7-9.5-12.1-16.5c-0.8-4.4,0.2-8.9,0.5-13.3
								c0.8-12.5-4.2-25.4-13.3-33.6c-9.3-8.5-22.4-12.2-30-22.4c-6.9-9.4-7.9-22.5-15.2-31.5c-1.9-2.4-4.2-4.4-6.6-6.2
								C890.3,510.1,891.5,509.9,892.6,509.9"/>
							<path class="st15" d="M964.3,643.9c12.2-33.3,20.3-70.6,8.5-104.1c-13-37.2-48-62.4-84.2-77.4c24.8,14.4,46.8,34.3,61.3,59.1
								c14.6,24.8,21.3,54.6,16.4,83C963.9,618.6,958.8,633.3,964.3,643.9"/>
						</g>
					</g>
					<g>
						<g>
							<path class="st7" d="M1022.6,748.8c6.5,10.9,10.2,23.6,10.2,37.2c0,40.2-32.4,72.8-72.3,72.8c-39.9,0-72.3-32.6-72.3-72.8
								c0-13.6,3.7-26.3,10.2-37.2H1022.6z"/>
							<path class="st9" d="M898.4,748.8h124.3c0.2,0.4,0.4,0.8,0.6,1.1c-0.5,0-1,0.3-1.1,1c-3.7,19.9-28.5,21.1-44.6,23.6
								c-17.5,2.7-35.6,6.3-43.3,24.1c-10.2,23.6,11.2,50.3,31.8,59.1c0.6,0.3,1.3,0.5,1.9,0.7c-2.5,0.3-5,0.4-7.5,0.4
								c-39.9,0-72.3-32.6-72.3-72.8C888.2,772.5,891.9,759.7,898.4,748.8z"/>
						</g>
					</g>
				</g>
				<g>
					<path class="st15" d="M-132,725.2c0.5,1.1,0.3,2.4,0.1,3.6c-0.8,4.9-2.3,9.7-4.4,14.4c-0.4,0.9-0.8,1.8-1.6,2.5
						c-0.3,0.2-0.6,0.4-0.9,0.5c-6.5-0.2-13,0.1-19.5,0.2c-3.4-9.2-7.9-18.1-13.4-26.5c-1.1,9.1,0.4,18.3,4.3,26.5
						c-2.9-0.1-5.9-0.3-8.8-0.7c-1.5-0.2-3.1-0.4-4.6-0.8c-0.7-0.2-1.4-0.5-2.2-0.8c-4.4-12.8-6.4-26.4-5.8-40.1
						c-4.3,11.8-5.5,24.4-3.4,36.2c-3.3-1.6-6.5-3.3-9.5-5.1c-3.7-2.2-7.3-4.6-10.7-7c-0.7-12.5-0.2-25.2,1.6-37.8
						c-7,8.6-11.5,18.7-13,28.9c-1.6-1.4-3.2-2.7-4.7-4.1c-3.8-3.5-7.4-7.1-10.7-10.9c4.2-9.7,9.8-19,16.6-27.6
						c-9.9,4.6-17.8,12.7-21.5,21.8c-2.1-2.6-4-5.3-5.8-8c-1.8-2.8-3.5-5.6-5.1-8.5c8-8.8,17.3-16.6,27.7-23.3
						c-12.1,1-23.8,7.7-30,17.1c-0.4-0.3-0.8-0.7-1.2-1.1c-1.8-4-3.2-8.2-4.4-12.4c1.2-5.2,6-9.9,11.6-12.6
						c6.3-3.1,13.4-4.1,18.4-4.1c-1.6-11.5,8.8-23.2,21.4-28.6c3.6-1.5,7.4-2.7,11.3-3.1c7.8-0.8,15.3,1.5,21.5,5.2
						c6.2,3.6,11.2,8.5,16.2,13.4c-13.9,0.7-27.8,4.3-40.3,10.3c-3,1.4-6.3,4.1-5.1,6.6c11.7-5.1,24.4-7.9,37.1-9.4
						c7.6-0.9,15.9-1.2,22.1,2.2c6.3,3.4,9.3,9.9,11.9,16c-11.4-3.7-24.4-2.6-37-1.4c-6,0.6-12.5,1.4-16.8,5.2
						c17.4-2.5,35-2.7,52.1-0.8c1.2,0.1,2.5,0.3,3.5,0.9c1,0.6,1.5,1.7,2,2.7c2.1,4.3,4.2,8.7,6.3,13c-16.1-8.6-36.6-11.4-56.1-7.5
						c16.1,1.2,31.8,3.9,46.9,8.3c4.7,1.3,9.6,3,12.6,6.3c2.2,2.4,3.3,5.4,4,8.4c2,9.1,0.2,19-4.9,27.6c-12.8-11-30.1-17.2-47-23.1
						c12.1,8.2,24.2,16.4,36.3,24.7C-133.7,723.2-132.5,724.1-132,725.2"/>
					<g>
						<path class="st7" d="M-410.4,676.7h201.2l-35.7,159.8c-1.1,12.5-30.2,22.4-66,22.4c-32.2,0-59-8.1-64.8-18.8l-0.7,0
							L-410.4,676.7z"/>
						<path class="st9" d="M-209.2,676.7l-4.4,19.7c-18.6,22.6-53.6,17.3-79.8,19.8c-15.7,1.5-33.1,5.8-40.6,21.3
							c-5.3,11-5.6,23.5-5.1,35.4c0.7,16.3,1.9,33.6,6.8,49.2c4,12.8,9.7,25.7,17.8,36.6c-30.6-0.6-55.6-8.4-61.2-18.7l-0.7,0
							l-34-163.4L-209.2,676.7L-209.2,676.7z"/>
						<path class="st15" d="M-410.4,677.4c0,3.3,45,6,100.6,6c55.6,0,100.6-2.7,100.6-6c0-3.3-45-6-100.6-6
							C-365.3,671.4-410.4,674.1-410.4,677.4z"/>
					</g>
					<path class="st15" d="M-296,302.1c-12.9,0.8-24.6,8-33.7,16.5c-6.8,6.4-12.8,14.1-13.6,22.7c-0.8,8.6,5.1,17.7,14.6,18.7
						c-1.4-7.3,1.5-15,6.2-21.3c4.7-6.4,11.1-11.7,17.4-16.8c-4.8,9.6-8.7,19.6-11.5,29.8c-2.5,8.9-4.1,18.8,1,26.4
						c5.4,8.2,16.6,11.4,26.9,14c-8.4-19.5-4.4-43.3,10.2-60.8c-4.2,16.5-8.3,33.4-6.5,50c0.7,6.8,2.9,14,9.1,17.8
						c7.8,4.8,18.9,2.5,28,5.1c-10.8-17.2-14.6-37.9-10.6-57.9c0.8-4.2,2.3-8.7,6.2-11.2c-1.3,23.4,2.6,46.7,11.4,68.2
						c0.7,1.7,1.4,3.4,2.9,4.5c4.3,3.5,11.8,0.5,17,2.7c-8.2-19-12.9-39.4-13.7-60c8.3,17.3,16.6,34.7,24.9,52
						c0.4,0.8,0.8,1.6,1.6,2.1c0.8,0.5,2,0.5,3,0.5c9.9,0,19.8-1.6,29.3-4.5c2-0.6,4.1-1.4,5-3.1c0.6-1,0.6-2.1,0.6-3.2
						c0-6.1,0.1-12.2,0.1-18.4c-14.1-6.3-27.1-14.5-38.6-24.1c6.7-4.5,16-1.9,23.4,0.9c5.4,2.1,10.9,4.1,16.3,6.2
						c-0.3-5.8-0.7-11.5-1-17.3c-16.5-5.9-34.5-9.1-52.6-9.3c12.9-6,28.1-3.4,41.9-0.7c-1.7-6.5-3.5-13-5.2-19.5
						c-0.4-1.5-0.9-3.2-2.2-4.3c-1.7-1.5-4.4-1.5-6.8-1.5c-16.6,0.3-33.3,3.5-48.9,9.4c12.8-10.4,30.2-16.1,47-15.6
						c-3.9-4.8-7.9-9.5-11.8-14.3c-0.8-1-1.7-2-2.9-2.4c-1.6-0.5-3.4-0.1-5,0.4c-16.1,4.6-31.4,11.7-45,20.8
						c11.1-11,25.7-19.2,41.6-23.1c-6.9-1.8-11.2-7.9-17.7-10.6c-10.2-4.2-22.6,0.9-32.6,6.5C-281.2,283.7-292.8,291.6-296,302.1"/>
					<g>
						<path class="st15" d="M-296,677.7c1-11.4,6.9-27.2,20-34.3c11.2-6,25.7-4.5,42,4.3l2.2-4.1c-22.5-12.1-37.7-9-46.5-4.3
							c-14.8,8-21.3,24.9-22.5,38L-296,677.7z"/>
						<path class="st15" d="M-310.4,678.9c0.3-64.7,0.6-126.7,0.9-191.4c0.3-62,0.6-126.1-9.6-188.5c-2.2-13.5-5-27.6-13.2-39.5
							c-7.5-11-22.1-21-37.7-18.5l0.7,4.6c13.5-2.2,26.4,6.7,33.1,16.5c7.6,11.1,10.3,24.7,12.4,37.6c10.2,62,9.9,125.9,9.6,187.7
							c-0.3,64.7-0.6,126.7-0.9,191.4L-310.4,678.9z"/>
						<path class="st15" d="M-306.2,678.9l4.7,0c-0.3-36.5-0.4-73.6-0.6-110.7c-0.2-36.8-0.4-73.7-0.6-109.9
							c-0.1-18.5-0.3-39.5,7.2-57.7c6.7-16.3,22.5-33.1,42.8-33.7l-0.1-4.7c-22.4,0.7-39.8,18.9-47.1,36.7
							c-7.8,19.1-7.7,40.6-7.5,59.5c0.3,36.3,0.4,73.1,0.6,109.9C-306.6,605.2-306.4,642.3-306.2,678.9z"/>
						<path class="st15" d="M-296.1,677.8c3.2-21.3,7-42.4,10.7-62.9c3.7-20.5,7.5-41.6,10.7-63c3-19.5,7.2-39.5,22.7-49.4l-2.5-4
							c-17.2,11-21.9,32.9-24.9,52.7c-3.2,21.3-7,42.5-10.7,62.9c-3.7,20.5-7.5,41.6-10.7,63L-296.1,677.8z"/>
						<path class="st15" d="M-310.5,676.1l4.7-0.7c-9.1-64.3-42.5-126.5-91.6-170.5c-10.9-9.8-25.7-21.4-43.3-24.6
							c-16-2.9-37,3.1-44.3,19.7l4.3,1.9c6.4-14.5,25-19.6,39.2-17c16.5,2.9,30.6,14.1,41,23.4
							C-352.3,551.7-319.5,612.8-310.5,676.1z"/>
						<path class="st15" d="M-310.7,678.9l4.7,0c-0.1-11.3-2.2-26.3-5.3-37.2c-1.5-5.3-3.7-11.3-8.5-15.2
							c-7.6-6.2-18.6-4.9-26.4-2.7c-14.9,4.2-28.8,12.8-39.1,24.2l3.5,3.2c9.7-10.7,22.9-18.8,36.9-22.8c6.8-1.9,16.1-3.2,22.1,1.8
							c3.8,3.1,5.5,8,6.9,12.9C-312.9,653.3-310.8,668.1-310.7,678.9z"/>
					</g>
					<path class="st15" d="M-231.4,506.5c6.6-5.7,16.5-6.7,25-4.4c8.5,2.4,15.8,7.6,22.4,13.3c4.4,3.8,8.7,8,10.6,13.4
						c1.9,5.4,0.8,12.2-4,15.4c-6.1-14.1-19.9-24.7-35.3-27.5c7.8,6.2,15.2,12.9,22,20.1c4.2,4.5,8.4,9.2,10.3,15
						c2,5.7,1.4,12.7-3,17c-6.9-14.6-19.2-26.7-34.1-33.6c11,10.2,22.1,20.6,29.2,33.7c2.2,4.1,4.1,8.6,4,13.2
						c-0.1,9-7.1,16.3-13.6,22.7c-0.3-25-15.7-49.3-38.6-60.7c13,15.9,21.2,35.5,23.4,55.7c0.4,4,0.6,8.3-1.4,11.9
						c-2,3.5-6.9,5.8-10.5,3.7c-1.8-18.2-7.1-36.2-15.5-52.6c-3.1,17.4,1.7,35,4.4,52.4c0.2,1.2,0.3,2.4-0.3,3.4
						c-0.6,1-1.8,1.5-3,1.9c-3.7,1.3-7.4,2.6-11.1,4c-1.8,0.7-3.8,1.3-5.7,1.1c-1.7-0.2-3.2-1.1-4.6-1.9c-4.7-2.8-9.4-5.5-14.1-8.3
						c7.7-15.5,14.2-31.5,19.4-48c-12,7.7-21.6,18.8-27.3,31.6c-0.8-4.4-8.4-5.6-8.4-10.1c0-1.3,0.7-2.4,1.3-3.6
						c8.1-13.5,18.9-25.5,31.6-35.1c-14.5,3.6-27.8,11.5-37.8,22.3l-3.3-16.7c-0.3-1.7-0.7-3.5-0.2-5.2c0.6-2,2.3-3.6,4-4.9
						c11.4-9,25.7-14.2,40.3-14.8c-13.5-8.1-30.9-2.7-45.7,2.9c-1.7-10.3,8-19.8,18.5-22.1c10.5-2.3,21.4,0.7,31.7,3.6
						c-8.7-8-21.1-12-33.1-10.8c1.3-7.4,11.3-10.1,18.8-8.4c7.5,1.8,14.3,6.3,21.9,7.3c-6.2-5.2-12.4-10.4-18.6-15.6
						c6.5-3.8,15-4,21.7-0.5C-233.2,491-228.7,498-231.4,506.5"/>
					<g>
						<path class="st3" d="M-281.6,379.9c-29.3,25.5-21,86.9-8.5,130.5c0.6,2.2,1.4,4.5,3,6c1.8,1.6,4.1,1.7,6.3,1.7l17.1,0.2
							c-3-25.4-5.6-52.9,5.3-75.1c1.2,33.6,7.9,67,19.8,97.6c0.8,2.1,1.7,4.3,3.4,5.4c1.4,0.9,3.2,0.9,4.8,0.9
							c9.7-0.2,19.4-0.5,29.1-0.7c-12.9-22.6-20.2-49.5-20.8-76.7c11.7,28.3,24.4,56,38.1,83l27.5-8.9c-14.7-16.2-25-37.8-29.1-60.9
							c18.5,17.6,35.2,37.8,49.6,60.1l28.5-12.8c1.8-0.8,3.6-1.7,4.9-3.3c1.4-1.8,1.9-4.4,2.3-6.8c2.1-13.2,3-26.6,2.9-39.9
							c-13.9-3.6-27.8-7.2-41.8-10.8c-13.4-3.5-27-7-39.5-13.8c27.1-1.8,54.5,1.1,80.9,8.5c-1.3-8.3-2.6-16.6-3.9-24.9
							c-0.4-2.7-1-5.7-2.7-7.6c-1.8-2-4.4-2.4-6.8-2.7c-20.7-2.6-41.6-2.7-62.3-0.4c-14.6,1.6-29.9,4.4-43.4-2.3
							c3.4-6.4,10.7-8.1,17.1-9c29.3-4.2,59-4.6,88.4-1.4c-3.6-11.6-8-24.3-17.7-29.3c-7-3.7-15.1-2.2-22.7-0.7
							c-25.6,5.1-51.2,10.3-76.9,15.4c23.2-15.7,49.6-24.5,76.4-25.6c-4.7-10.6-15.9-15.4-26.1-14.5c-10.2,0.9-19.6,6.3-28.7,11.6
							c-10.1,5.9-20.2,11.8-30.4,17.7l-3.5-4.5c14-11.3,29.4-20.3,45.5-26.5c-8.2-6.6-19.5-3.9-28.5,1.1c-9,5-17.4,12.1-27.2,14
							c9.8-11.2,21.8-19.7,34.8-24.9c-7.1-7.3-18.2-3-26.6,2.1C-256.5,359.8-269.4,369.2-281.6,379.9"/>
						<g>
							<path class="st34" d="M-267.3,405.1c14,5.8,24.7,17.1,36.2,26.8c36.8,31.2,85,48.4,118.2,83.4
								c-26.2-22.2-57.8-37.3-86.6-56.2c-10.7-7.1-21.1-14.8-31.4-22.4c-16.3-12.1-32.6-24.1-48.9-36.2
								C-274.2,401.2-269.3,404.3-267.3,405.1"/>
							<path class="st34" d="M-210.9,450.7c29.7-17.7,67.5-17.6,100.8-8c-29.3-7.7-61-5.7-89.1,5.6
								C-203.2,449.9-207.5,451.8-210.9,450.7"/>
							<path class="st34" d="M-205.3,450.8c-2.2,4.4-2,9.6-1.3,14.5c3.9,26,20.3,48.7,26,74.4c-1.9-8.1-6.8-15.1-10.7-22.4
								c-8.3-15.3-12.7-32.3-17.1-49c-1.6-6.1-3.2-12.6-1-18.5C-208.2,450.4-207,451.1-205.3,450.8"/>
							<path class="st34" d="M-236.5,428.5c2.6,3.6,1.3,8.5,0.4,12.9c-2.6,12.4-0.9,25.1,1.4,37.6c3.6,19.8,8.4,39.3,13.3,58.8
								c-11.1-30.8-22.3-62.9-18.4-95.3c0.6-5.3,1.7-10.8,0.3-16C-238,427.3-236.8,428.6-236.5,428.5"/>
							<path class="st34" d="M-265.8,406.7c2.7,5.3,1.4,11.7-1.1,17c-2.5,5.4-6.1,10.2-8.3,15.7c-2.3,5.7-2.9,11.9-3.4,18
								c-1.2,15.5-1.3,31-0.5,46.5c-1.5-12.9-2.8-25.8-3.7-38.8c-0.5-6.3-0.8-12.6,0.5-18.8c1.5-7,5.1-13.4,8-20
								c2.9-6.6,5-13.9,3.4-20.9C-269.2,405.7-267.6,406.3-265.8,406.7"/>
							<path class="st34" d="M-269.8,407c0-5.9,2.7-11.7,6.5-16.3c3.8-4.6,8.7-8.2,13.7-11.6c11.7-7.7,24.4-14.1,37.6-18.9
								c-20.2,10.9-41.4,22.7-52.7,42.4c-1.4,2.4-3.4,5.3-6.1,4.8C-270.3,406.3-269.9,405.2-269.8,407"/>
							<path class="st34" d="M-256,415.3c-0.7-4.9,1.7-9.9,5.3-13.4c3.5-3.5,8.1-5.9,12.6-8.2c9.3-4.8,18.6-9.5,27.9-14.3
								c12.7-6.5,26.9-13.3,40.9-10c-11.8,0-23.1,4.4-33.8,9.4c-10.4,4.9-20.4,10.6-30.3,16.2c-9.3,5.3-19.8,12.2-20.7,22.7
								C-254.9,416.4-255.6,415-256,415.3"/>
							<path class="st34" d="M-236.7,431.5c-0.8-5.5,1.9-11,5.9-14.9c4-3.9,9.2-6.4,14.3-8.6c23.1-9.8,48.3-14.8,73.4-14.6
								c7.4,0.1,15.6,1,20.3,6.6c-23.8-5.8-49.1-5.1-72.5,2c-8.4,2.5-16.6,5.9-23.4,11.3c-6.8,5.4-12,13.1-13.1,21.6
								C-233.4,434.7-236.3,434.3-236.7,431.5"/>
						</g>
					</g>
					<g>
						<path class="st13" d="M-332.3,633c-16.5-26-65.7-26.8-101.3-22.2c-1.8,0.2-3.7,0.5-5,1.6c-1.4,1.2-1.8,3-2.1,4.8l-2.2,13.4
							c20.2,0.7,42.1,1.8,58.2,13.1c-26.5-3.1-53.4-1.8-78.9,3.9c-1.7,0.4-3.6,0.9-4.6,2.1c-0.9,1-1.1,2.4-1.3,3.7
							c-1,7.6-1.9,15.3-2.9,22.9c19.3-7.4,41.2-9.9,62.6-7.2c-23.6,5.8-46.8,12.5-69.6,20l3.7,22.6c14.4-9.6,32.6-15.1,51.2-15.6
							c-16,12.4-33.8,23.1-53,31.7l6.7,23.8c0.4,1.5,0.9,3,2,4.2c1.3,1.3,3.2,2,5.1,2.6c10.1,3.2,20.5,5.5,31,7
							c4.5-10.5,9-21,13.4-31.5c4.3-10.1,8.7-20.3,15.5-29.3c-1.8,21.5-7.3,42.6-16.3,62.4c6.7,0,13.3-0.1,20-0.1
							c2.2,0,4.6-0.1,6.3-1.2c1.8-1.2,2.4-3.2,2.9-5c4.5-15.9,7-32.3,7.7-48.8c0.5-11.6,0.1-24,7-33.8c4.6,3.5,5.1,9.3,5,14.5
							c-0.2,23.5-3.4,46.8-9.4,69.5c9.5-1.4,20-3.4,25.1-10.4c3.7-5.1,3.5-11.6,3.2-17.7c-1-20.7-2-41.4-2.9-62.1
							c9.5,20,13.3,41.8,11,62.9c8.9-2.4,13.9-10.6,14.4-18.7c0.5-8.1-2.6-16.1-5.7-23.9c-3.4-8.6-6.9-17.3-10.3-25.9l3.9-2.2
							c7.2,12.3,12.4,25.4,15.4,38.8c6.2-5.7,5.4-14.8,2.5-22.4c-2.9-7.6-7.4-15.1-7.7-23c7.6,9,12.9,19.4,15.4,30.2
							c6.5-4.7,4.5-13.9,1.5-21.1C-319.5,655.2-325.4,643.9-332.3,633"/>
						<g>
							<path class="st15" d="M-353.7,641.2c-6.2,10.3-16.3,17.4-25.3,25.2c-28.8,25.2-48,60.9-79.4,82.8
								c20.5-17.9,36.1-40.9,54.4-61.2c6.8-7.6,14.1-14.8,21.3-22c11.4-11.3,22.8-22.7,34.2-34
								C-349.9,636.3-352.9,639.8-353.7,641.2"/>
							<path class="st15" d="M-396.2,680.1c10.3,25.4,5.8,55-5.7,80c9.5-22,11.7-47.2,6.2-70.5
								C-396.5,686.2-397.4,682.6-396.2,680.1"/>
							<path class="st15" d="M-396.9,684.4c-3.2-2.3-7.3-2.7-11.2-2.7c-20.9-0.1-40.6,10.1-61.4,11.5c6.6-0.5,12.6-3.5,18.8-5.7
								c13-4.7,26.8-6.1,40.5-7.6c5-0.5,10.3-1,14.6,1.4C-396.3,682.2-396.9,683.1-396.9,684.4"/>
							<path class="st15" d="M-375.8,662.7c-3.1,1.6-6.8,0-10.1-1.2c-9.4-3.5-19.6-3.6-29.6-3.4c-15.9,0.5-31.8,1.9-47.7,3.4
								c25.4-5,52-10,76.9-3.1c4.1,1.1,8.3,2.6,12.5,2.2C-374.6,661.6-375.7,662.4-375.8,662.7"/>
							<path class="st15" d="M-355.2,642.3c-4.5,1.5-9.3-0.3-13.2-2.9c-3.9-2.6-7.3-6-11.3-8.3c-4.2-2.4-9-3.7-13.7-4.8
								c-12-2.8-24.2-4.7-36.4-5.9c10.3,0.3,20.6,0.9,30.9,1.7c5,0.4,10,0.8,14.7,2.6c5.3,2,9.9,5.6,14.7,8.6c4.8,3,10.3,5.6,16,5.1
								C-353.9,639.7-354.6,640.9-355.2,642.3"/>
							<path class="st15" d="M-355,639.1c4.7,0.7,8.8,3.5,12,7c3.2,3.5,5.4,7.8,7.4,12.1c4.7,10.1,8.2,20.8,10.4,31.7
								c-6.1-17.1-12.9-35.1-27-46.3c-1.7-1.4-3.8-3.3-3-5.4C-354.4,638.8-353.5,639.2-355,639.1"/>
							<path class="st15" d="M-363,649c3.9,0,7.5,2.5,9.9,5.7c2.3,3.2,3.6,7.1,4.9,10.8c2.6,7.9,5.3,15.7,7.9,23.6
								c3.6,10.8,7.2,22.7,3,33.3c1.4-9.2-0.7-18.7-3.4-27.6c-2.6-8.7-5.9-17.2-9.1-25.7c-3-7.9-7.2-16.9-15.4-18.9
								C-364,649.7-362.9,649.2-363,649"/>
							<path class="st15" d="M-378,662.2c4.4,0,8.4,2.8,11,6.4c2.6,3.6,3.9,7.9,5,12.3c5,19.3,5.9,39.6,2.8,59.3
								c-0.9,5.8-2.6,12.1-7.6,15.1c7.3-17.9,9.8-37.9,7.1-57.1c-1-6.9-2.6-13.7-6.1-19.7c-3.4-6-8.8-11-15.4-12.8
								C-381,664.3-380.3,662.1-378,662.2"/>
						</g>
					</g>
					<g>
						<path class="st5" d="M-500.5,472.2c-4.9,10.3-8.3,21.3-11.1,32.3c-0.8,3-1.4,6-2.1,9c17.7-10.2,37.1-16.7,56.8-18.8
							c-23.4,10-44.5,26.3-60.9,46.7c-0.8,9-1,18-0.6,27c1.4,2.5,2.9,5.1,4.3,7.6c12.9-14.7,29.2-26,47-32.5
							c-16.9,17.9-32.7,37-47.4,57c0.1,0.3,0.2,0.7,0.2,1c7,3.7,14,7.1,21.3,10.2c14.9,6.5,30.5,11.9,46.6,15.1
							c14-23.2,13.9-55.9,34.2-73.9c1.2,25.3-2.2,51.1-9.9,75.6c15.1-0.7,30.1-2.1,45.2-4.1c0.3-1.2,0.5-2.5,0.7-3.7
							c2.5-14.3,3.5-28.9,3-43.3c-0.5-11.6-1.5-24.6,5.6-34c7.4,3.9,9.1,14,9.3,22.8c0.4,18.6-2.6,37.4-8.6,55.2
							c0.3-0.1,0.6-0.2,1-0.3c6.8-2.4,13.2-5.8,19.7-8.9c13.4-6.2,26.6-13.3,38.8-22.1c1.3-1,2.6-1.9,3.9-3
							c1.1-3.5,0.8-7.5,0.4-11.2c-3.2-26.9-10.2-53-20.7-77.4c19.4,20.5,30.6,49.3,30.9,78.9c14.1-13.7,25.5-30.3,33.4-48.5
							c2.8-8,4.6-16.4,5.2-24.8c-0.9-4.1-2.7-8.1-4.6-11.8c-7.5-15.6-15.5-31.6-28.7-42.1c-13.2-10.5-30.3-14.3-46.8-17.9
							c-2.2-18.6-19.1-35.5-35.2-51.1c-3.4-3.3-7-6.7-11.6-8.1c-0.2,0-0.4-0.1-0.5-0.1c-2.7,1.6-5.4,3.2-8.1,4.7
							c-7.3,4.3-14.7,8.6-22.1,12.9c12.1,6.6,21.7,17.7,26.9,30.9c-17.4-7.4-36.1-11.8-55.1-13.4c-4.3,2.8-8.5,5.8-12.7,8.8
							c-9.9,7.3-19.5,15.3-27.7,24.7c-0.2,0.2-0.4,0.5-0.6,0.7c14.7-0.9,29.4,3.7,40.5,13.1c-19.2,3.2-38.4,7.2-57.4,11.8
							C-498.9,469.1-499.7,470.6-500.5,472.2"/>
						<g>
							<path class="st13" d="M-336.7,443.6c-57.9,43.7-101.5,93-141.5,155.1c34.6-68.3,84.1-118.1,142.1-166
								C-333.4,437.2-336.7,443.6-336.7,443.6z"/>
							<path class="st13" d="M-391,484.8c9.5,26.9,10.3,57.3,2.5,85.5c-0.5-18.4-0.9-36.9-1.4-55.3c-0.2-8.1-1.1-17.5-7.7-21.5
								C-395.2,490.9-392.9,488.4-391,484.8"/>
							<path class="st13" d="M-363.1,460.2c11.8,15.3,22.5,31.8,29.7,50.1c7.2,18.3,10.9,38.7,8.3,58.7
								c-4.4-38.9-21-75.7-46.8-103.2C-368.4,465.2-365.2,463.1-363.1,460.2"/>
							<path class="st13" d="M-397,494.1c-17.4,1.1-33.8,9.9-48.7,19.9c-15,10-29.3,21.4-45.5,28.7c19.1-19.7,42-34.7,64.6-49.4
								c9.6-6.2,17.3-6.1,36.3-8.5C-391,488.1-396.9,491.2-397,494.1"/>
							<path class="st13" d="M-371.9,465.9c-36.8,5.1-69.4,7.1-105.4,17.4c36.1-15.9,76-26.9,114.2-23.1L-371.9,465.9z"/>
							<path class="st13" d="M-353.3,449.1c-25.8-11.9-56.7-18.2-85.3-18.6c31.3-1,64.9,4,95.2,11.1c-2.7,3.7-8.5,4.9-12.6,7.5"/>
							<path class="st13" d="M-348.3,443c37.1,8.3,67.7,40.2,75.9,79.3c-7.3-17.7-19.9-32.4-34.6-43.8
								c-14.7-11.4-31.3-19.7-48.3-26.9C-353,448.7-350.7,445.8-348.3,443"/>
						</g>
					</g>
					<g>
						<path class="st13" d="M-512.7,247.3c-7.5,4.6-15.4,12.1-13.7,20.7c15.2-6,31.8-6.5,48.1-6.9c8.3-0.2,16.8-0.4,24.7,1.8
							c8,2.2,15.5,7.2,18.8,14.8c-15.1-5.2-31.1-8.5-47.1-7c-16,1.5-32.1,8.3-42.7,20.6c-11.8,13.7-15.7,32.3-19.1,50
							c11.4-9.4,23.8-17.7,37.7-22.5c13.8-4.8,29.2-5.8,42.8-0.9c-16.8,9.5-35.4,15.1-52.3,24.5c-12.5,7-24.4,16.8-31.2,29.1
							c0.1,2.1,0.2,4.2,0.4,6.3c0.4,2.8,0.8,5.6,1.3,8.4c4.8-3.5,9.7-6.9,14.7-9.9c4.3-2.6,8.6-4.9,13.2-7c0.6-0.3,1,0.2,1.1,0.7
							c0.2-0.2,0.5-0.4,0.7-0.5c0.9-0.6,1.8,0.8,0.9,1.5c-7.9,5.5-15.9,11.1-22.9,17.6c-2.1,2-4.2,4.1-6.2,6.2
							c1.7,8.9,3.6,17.7,5.8,26.4c1.2,4.4,2.4,8.9,3.7,13.3c0.5,0.8,1,1.6,1.5,2.3c1,1,2.1,2.1,3.2,3c5.3,2,10.7,3.8,16.1,5.2
							c10.3,2.8,21,4.9,31.8,5.7c0.5-1.2,1-2.3,1.5-3.5c3.6-9,6.7-18.3,9.3-27.6c1.5-5.2,2.8-10.5,3.9-15.8c0.1-0.6,0.6-0.8,1.1-0.7
							c0.1-0.4,0.2-0.7,0.2-1.1c0.2-0.8,1.5-0.7,1.4,0.1c-0.4,11-0.8,21.9-1.1,32.9c-0.2,5.2,0,10.8-1.1,15.9
							c2.4-0.1,4.9-0.4,7.3-0.7c0.7-0.1,1.4-0.2,2.1-0.3c2-0.4,4.1-0.8,6.1-1.4c11.1-15,6.6-36.1,6.3-54.9
							c-0.2-12.3,1.7-24.6,5.6-36.4c13.6,26.4,15,59.1,3.7,87.2c12.6-0.6,24.2-9,31-19.8c6.8-10.8,9.5-23.8,10.2-36.5
							c0.8-15.5-1.2-31.1-5.9-45.7c-1-3.1-2.1-6.2-1.8-9.4c0.3-3.2,2.4-6.6,5.6-7.1c3.7-0.6,6.7,2.6,8.8,5.6
							c20,29.2,18,72-4.6,100.2c7.3,3.1,16.1,1,22.7-3.6c6.6-4.6,11.3-11.6,15.1-18.7c15.1-28.5,17-63.6,5.1-93
							c10.4,11.1,15.3,26.5,16.4,41.8c1.1,15.3-1.3,30.8-3.8,46c6.6,2.2,12.6-4.9,15.7-11.2c15.9-32.5,16.6-71.8,1.8-104.1
							c12.3,7.1,21.1,19.9,23.5,34c8.8-20,0.9-44.6-15.6-58.1c-16.6-13.5-40-16.7-61.1-12c5.8-10.9,5.3-25.7-1.2-37.4
							c-6.4-11.6-18.6-19.7-31.9-21.2c6.8,12.5,13.7,25,20.6,37.5c-8.3-11.4-20.3-20.3-34.1-23.6c-13.8-3.3-29.3-0.6-40.6,8.3
							c20.2,2.9,38.3,16.7,46.5,35.4c-12.3-13-30.3-19.8-48.3-20.1C-479.2,231.8-497.2,237.8-512.7,247.3"/>
						<g>
							<path class="st23" d="M-433.1,312.8c23.3,27.2,31.8,66.5,22.1,101.7c3.5-20.8-3-41.5-9.7-61.3c-4.2-12.4-8.6-25.2-17.2-35
								C-436.8,316-435.4,313.9-433.1,312.8"/>
							<path class="st23" d="M-438.2,316.5c-9.9-8.9-23-13.8-36.4-15.3c-13.3-1.4-27,0.5-40,4.1c21.9-14.5,52-14.9,73.6-1
								c2,1.3,4,2.8,4.8,5C-435.3,311.6-436.2,314.7-438.2,316.5"/>
							<path class="st23" d="M-398.5,273.5c18.7,10.2,33.5,27.3,41.1,47.3c7.6,20.1,7.8,43,0.7,63.6c3.8-16.8,0.1-34.2-4.9-50.4
								c-3.4-11.1-7.6-22.2-14-31.9c-6.4-9.7-15.2-18-26-22.2C-401.2,277-400.1,274.3-398.5,273.5"/>
							<path class="st23" d="M-401.9,276.5c-14.3-24.3-43.5-38.6-71.7-35.1c26.8,4.2,51.8,18.3,69.2,38.9
								C-403,279.3-402.1,277.7-401.9,276.5"/>
							<path class="st23" d="M-384.2,258.9c-5.7-20.2-22.9-36.4-43.4-40.8c18.7,8.3,34,23.9,42.1,42.8
								C-384.9,259.8-384.6,258.5-384.2,258.9"/>
							<path class="st23" d="M-383.9,259.2c19,2.4,37.2,11.7,49.3,26.5c12.1,14.8,17.7,35.1,13.8,54.2c-2.5-30-20.3-57.9-46.3-72.4
								c-5.9-3.3-12.8-6-19.4-4.1C-386,261.9-385.4,260.4-383.9,259.2"/>
							<path class="st23" d="M-371.8,253.8c-22.5,16.8-41.1,38.2-59.6,59.4c-21.4,24.5-42.7,49-64.1,73.5
								c32-47.4,69.1-91.3,110.6-130.6C-381,252.3-374.4,248.7-371.8,253.8"/>
						</g>
					</g>
				</g>
			</g>
		</g>
	</g>
</g>
</svg>
